{
  "asset": {
    "version": "2.0",
    "generator": "GLTFExporter"
  },
  "scenes": [
    {
      "nodes": [
        1
      ],
      "name": "Scene"
    }
  ],
  "scene": 0,
  "nodes": [
    {
      "matrix": [
        0.0032556481843434427,
        -0.0006526401764707892,
        0.00001657680788816704,
        0,
        0.0035276601468986354,
        0.017960375329158444,
        0.01428756546428936,
        0,
        -0.0004144053990696411,
        -0.0020007506465620165,
        0.0026173888085247784,
        0,
        2.3381810188293457,
        1.8894243240356445,
        1.2898380756378174,
        1
      ],
      "name": "Cylinder",
      "extras": {
        "targetNames": [
          "Shrink",
          "Rotate-01"
        ],
        "name": "Cylinder"
      },
      "mesh": 0
    },
    {
      "matrix": [
        1,
        0,
        0,
        0,
        0,
        1,
        0,
        0,
        0,
        0,
        1,
        0,
        -2.325925001276978,
        -1.8711358581749749,
        -1.2832930514287293,
        1
      ],
      "name": "debris-stick-web.gltf",
      "children": [
        0
      ]
    }
  ],
  "bufferViews": [
    {
      "buffer": 0,
      "byteOffset": 0,
      "byteLength": 1536,
      "target": 34962,
      "byteStride": 12
    },
    {
      "buffer": 0,
      "byteOffset": 1536,
      "byteLength": 1536,
      "target": 34962,
      "byteStride": 12
    },
    {
      "buffer": 0,
      "byteOffset": 3072,
      "byteLength": 1536,
      "target": 34962,
      "byteStride": 12
    },
    {
      "buffer": 0,
      "byteOffset": 4608,
      "byteLength": 1536,
      "target": 34962,
      "byteStride": 12
    },
    {
      "buffer": 0,
      "byteOffset": 6144,
      "byteLength": 1536,
      "target": 34962,
      "byteStride": 12
    },
    {
      "buffer": 0,
      "byteOffset": 7680,
      "byteLength": 1536,
      "target": 34962,
      "byteStride": 12
    },
    {
      "buffer": 0,
      "byteOffset": 9216,
      "byteLength": 744,
      "target": 34963
    }
  ],
  "buffers": [
    {
      "byteLength": 9960,
      "uri": "data:application/octet-stream;base64,"
    }
  ],
  "accessors": [
    {
      "bufferView": 0,
      "componentType": 5126,
      "count": 128,
      "max": [
        4.381130695343018,
        4.381131172180176,
        4.381132125854492
      ],
      "min": [
        -4.381131172180176,
        -4.381131172180176,
        -4.381130218505859
      ],
      "type": "VEC3"
    },
    {
      "bufferView": 1,
      "componentType": 5126,
      "count": 128,
      "max": [
        0.9591967463493347,
        0.9912412166595459,
        0.23645740747451782
      ],
      "min": [
        -0.9591967463493347,
        -0.9912412166595459,
        -0.23645740747451782
      ],
      "type": "VEC3"
    },
    {
      "bufferView": 2,
      "componentType": 5126,
      "count": 128,
      "max": [
        0,
        1.1091046333312988,
        0
      ],
      "min": [
        0,
        -1.1091046333312988,
        0
      ],
      "type": "VEC3"
    },
    {
      "bufferView": 3,
      "componentType": 5126,
      "count": 128,
      "max": [
        0.6476565599441528,
        0.9883724451065063,
        0.8420972228050232
      ],
      "min": [
        -0.6476567983627319,
        -0.9883724451065063,
        -0.8420972228050232
      ],
      "type": "VEC3"
    },
    {
      "bufferView": 4,
      "componentType": 5126,
      "count": 128,
      "max": [
        5.23056697845459,
        1.7436625957489014,
        22.481924057006836
      ],
      "min": [
        -5.23056697845459,
        -1.7436621189117432,
        -22.481924057006836
      ],
      "type": "VEC3"
    },
    {
      "bufferView": 5,
      "componentType": 5126,
      "count": 128,
      "max": [
        0.3734363317489624,
        1.9784940481185913,
        0.26855379343032837
      ],
      "min": [
        -0.3734346628189087,
        -1.9784939289093018,
        -0.26855379343032837
      ],
      "type": "VEC3"
    },
    {
      "bufferView": 6,
      "componentType": 5123,
      "count": 372,
      "max": [
        127
      ],
      "min": [
        0
      ],
      "type": "SCALAR"
    }
  ],
  "materials": [
    {
      "pbrMetallicRoughness": {
        "metallicFactor": 0,
        "roughnessFactor": 1,
        "baseColorTexture": {
          "index": 0
        }
      },
      "doubleSided": true,
      "name": "Red"
    }
  ],
  "textures": [
    {
      "sampler": 0,
      "source": 0
    }
  ],
  "samplers": [
    {
      "magFilter": 9729,
      "minFilter": 9987,
      "wrapS": 10497,
      "wrapT": 10497
    }
  ],
  "images": [
    {
      "mimeType": "image/png",
      "uri": "data:image/png;base64,"
    }
  ],
  "meshes": [
    {
      "weights": [
        0,
        0
      ],
      "extras": {
        "targetNames": [
          "Shrink",
          "Rotate-01"
        ]
      },
      "primitives": [
        {
          "mode": 4,
          "attributes": {
            "POSITION": 0,
            "NORMAL": 1
          },
          "targets": [
            {
              "POSITION": 2,
              "NORMAL": 3
            },
            {
              "POSITION": 4,
              "NORMAL": 5
            }
          ],
          "indices": 6,
          "material": 0
        }
      ]
    }
  ]
}