{
    "accessors" : [
        {
            "bufferView" : 0,
            "componentType" : 5121,
            "count" : 42,
            "max" : [
                41
            ],
            "min" : [
                0
            ],
            "type" : "SCALAR"
        },
        {
            "bufferView" : 1,
            "componentType" : 5126,
            "count" : 42,
            "max" : [
                -10.755592346191406,
                -46.657249450683594,
                -19.942468643188477
            ],
            "min" : [
                -17.923542022705078,
                -49.720481872558594,
                -27.02862548828125
            ],
            "type" : "VEC3"
        },
        {
            "bufferView" : 2,
            "componentType" : 5126,
            "count" : 42,
            "max" : [
                -0.0023336855228990316,
                -0.5558282732963562,
                0.06557147204875946
            ],
            "min" : [
                -0.6455911993980408,
                -0.9975782036781311,
                -0.7739371061325073
            ],
            "type" : "VEC3"
        },
        {
            "bufferView" : 3,
            "componentType" : 5126,
            "count" : 42,
            "max" : [
                0.23392407596111298,
                0.7439213991165161,
                -0.625987708568573,
                1.0
            ],
            "min" : [
                -0.00816664844751358,
                -0.06573732197284698,
                -0.998916745185852,
                1.0
            ],
            "type" : "VEC4"
        },
        {
            "bufferView" : 4,
            "componentType" : 5126,
            "count" : 42,
            "max" : [
                0.8720999956130981,
                0.8438999950885773
            ],
            "min" : [
                0.12790000438690186,
                0.11830002069473267
            ],
            "type" : "VEC2"
        },
        {
            "bufferView" : 5,
            "componentType" : 5123,
            "count" : 1554,
            "max" : [
                1553
            ],
            "min" : [
                0
            ],
            "type" : "SCALAR"
        },
        {
            "bufferView" : 6,
            "componentType" : 5126,
            "count" : 1554,
            "max" : [
                21.75898551940918,
                54.57920837402344,
                16.336341857910156
            ],
            "min" : [
                -18.397005081176758,
                -49.720481872558594,
                -27.02862548828125
            ],
            "type" : "VEC3"
        },
        {
            "bufferView" : 7,
            "componentType" : 5126,
            "count" : 1554,
            "max" : [
                0.9864629507064819,
                0.9995127320289612,
                0.9992315173149109
            ],
            "min" : [
                -0.9894922375679016,
                -0.8960824608802795,
                -0.9996901750564575
            ],
            "type" : "VEC3"
        },
        {
            "bufferView" : 8,
            "componentType" : 5126,
            "count" : 1554,
            "max" : [
                0.9989159107208252,
                0.9492456316947937,
                0.9729123711585999,
                1.0
            ],
            "min" : [
                -0.9741371870040894,
                -0.9717919230461121,
                -0.9782395362854004,
                1.0
            ],
            "type" : "VEC4"
        },
        {
            "bufferView" : 9,
            "componentType" : 5126,
            "count" : 1554,
            "max" : [
                1.0,
                1.0
            ],
            "min" : [
                0.0,
                0.0
            ],
            "type" : "VEC2"
        },
        {
            "bufferView" : 10,
            "componentType" : 5126,
            "count" : 1554,
            "max" : [
                4.847503662109375,
                12.647945404052734,
                12.899711608886719
            ],
            "min" : [
                -4.15471076965332,
                -15.995309829711914,
                -9.924972534179688
            ],
            "type" : "VEC3"
        },
        {
            "bufferView" : 11,
            "componentType" : 5126,
            "count" : 1554,
            "max" : [
                0.526218056678772,
                0.5657929182052612,
                0.5150480270385742
            ],
            "min" : [
                -1.0516823530197144,
                -0.615821123123169,
                -1.078414797782898
            ],
            "type" : "VEC3"
        },
        {
            "bufferView" : 12,
            "componentType" : 5126,
            "count" : 1554,
            "max" : [
                0.9956038594245911,
                0.9944440126419067,
                0.9983006119728088
            ],
            "min" : [
                -0.9868764281272888,
                -0.9942988157272339,
                -0.9965595006942749
            ],
            "type" : "VEC3"
        },
        {
            "bufferView" : 13,
            "componentType" : 5126,
            "count" : 1554,
            "max" : [
                12.89346694946289,
                6.310800552368164,
                6.151930809020996
            ],
            "min" : [
                -7.4491682052612305,
                -5.445156097412109,
                -9.349542617797852
            ],
            "type" : "VEC3"
        },
        {
            "bufferView" : 14,
            "componentType" : 5126,
            "count" : 1554,
            "max" : [
                0.9163694381713867,
                0.9814468622207642,
                1.4971113204956055
            ],
            "min" : [
                -0.9265416264533997,
                -0.8668679594993591,
                -1.1645731925964355
            ],
            "type" : "VEC3"
        },
        {
            "bufferView" : 15,
            "componentType" : 5126,
            "count" : 1554,
            "max" : [
                0.9998659491539001,
                0.9840484857559204,
                0.9975119829177856
            ],
            "min" : [
                -0.9964199066162109,
                -0.9808841347694397,
                -0.9974111318588257
            ],
            "type" : "VEC3"
        },
        {
            "bufferView" : 16,
            "componentType" : 5126,
            "count" : 1554,
            "max" : [
                77.31997680664062,
                46.73491668701172,
                51.1821174621582
            ],
            "min" : [
                -58.73584747314453,
                -32.41214370727539,
                -47.830684661865234
            ],
            "type" : "VEC3"
        },
        {
            "bufferView" : 17,
            "componentType" : 5126,
            "count" : 1554,
            "max" : [
                1.409496545791626,
                1.4371185302734375,
                1.6964389085769653
            ],
            "min" : [
                -1.2822365760803223,
                -1.6301617622375488,
                -1.8871718645095825
            ],
            "type" : "VEC3"
        },
        {
            "bufferView" : 18,
            "componentType" : 5126,
            "count" : 1554,
            "max" : [
                0.9949073791503906,
                0.9960730671882629,
                0.9965932965278625
            ],
            "min" : [
                -0.9956286549568176,
                -0.9942488074302673,
                -0.9962875843048096
            ],
            "type" : "VEC3"
        },
        {
            "bufferView" : 19,
            "componentType" : 5126,
            "count" : 1554,
            "max" : [
                14.248283386230469,
                36.36602783203125,
                19.711977005004883
            ],
            "min" : [
                -14.52877426147461,
                -41.37127685546875,
                -7.742273330688477
            ],
            "type" : "VEC3"
        },
        {
            "bufferView" : 20,
            "componentType" : 5126,
            "count" : 1554,
            "max" : [
                1.8593608140945435,
                1.8960824012756348,
                1.8663203716278076
            ],
            "min" : [
                -1.928958773612976,
                -1.6457494497299194,
                -1.5471150875091553
            ],
            "type" : "VEC3"
        },
        {
            "bufferView" : 21,
            "componentType" : 5126,
            "count" : 1554,
            "max" : [
                0.9938147068023682,
                0.9437561631202698,
                0.9825604557991028
            ],
            "min" : [
                -0.9967002868652344,
                -0.9912604093551636,
                -0.9992387294769287
            ],
            "type" : "VEC3"
        },
        {
            "bufferView" : 22,
            "componentType" : 5126,
            "count" : 11,
            "max" : [
                0.4166666666666667
            ],
            "min" : [
                0.0
            ],
            "type" : "SCALAR"
        },
        {
            "bufferView" : 23,
            "componentType" : 5126,
            "count" : 44,
            "max" : [
                0.2222222089767456
            ],
            "min" : [
                0.0
            ],
            "type" : "SCALAR"
        },
        {
            "bufferView" : 24,
            "componentType" : 5126,
            "count" : 11,
            "max" : [
                0.4166666666666667
            ],
            "min" : [
                0.0
            ],
            "type" : "SCALAR"
        },
        {
            "bufferView" : 25,
            "componentType" : 5126,
            "count" : 44,
            "max" : [
                0.6805555820465088
            ],
            "min" : [
                0.0
            ],
            "type" : "SCALAR"
        },
        {
            "bufferView" : 26,
            "componentType" : 5126,
            "count" : 15,
            "max" : [
                0.5833333333333334
            ],
            "min" : [
                0.0
            ],
            "type" : "SCALAR"
        },
        {
            "bufferView" : 27,
            "componentType" : 5126,
            "count" : 60,
            "max" : [
                1.0
            ],
            "min" : [
                0.0
            ],
            "type" : "SCALAR"
        }
    ],
    "animations" : [
        {
            "channels" : [
                {
                    "sampler" : 0,
                    "target" : {
                        "node" : 3,
                        "path" : "weights"
                    }
                }
            ],
            "name" : "Breathe-01",
            "samplers" : [
                {
                    "input" : 22,
                    "interpolation" : "LINEAR",
                    "output" : 23
                }
            ]
        },
        {
            "channels" : [
                {
                    "sampler" : 0,
                    "target" : {
                        "node" : 3,
                        "path" : "weights"
                    }
                }
            ],
            "name" : "Blow-up",
            "samplers" : [
                {
                    "input" : 26,
                    "interpolation" : "LINEAR",
                    "output" : 27
                }
            ]
        },
        {
            "channels" : [
                {
                    "sampler" : 0,
                    "target" : {
                        "node" : 3,
                        "path" : "weights"
                    }
                }
            ],
            "name" : "Spaz-01",
            "samplers" : [
                {
                    "input" : 24,
                    "interpolation" : "LINEAR",
                    "output" : 25
                }
            ]
        }
    ],
    "asset" : {
        "generator" : "Khronos Blender glTF 2.0 exporter",
        "version" : "2.0"
    },
    "bufferViews" : [
        {
            "buffer" : 0,
            "byteLength" : 42,
            "byteOffset" : 0,
            "target" : 34963
        },
        {
            "buffer" : 0,
            "byteLength" : 504,
            "byteOffset" : 44,
            "target" : 34962
        },
        {
            "buffer" : 0,
            "byteLength" : 504,
            "byteOffset" : 548,
            "target" : 34962
        },
        {
            "buffer" : 0,
            "byteLength" : 672,
            "byteOffset" : 1052,
            "target" : 34962
        },
        {
            "buffer" : 0,
            "byteLength" : 336,
            "byteOffset" : 1724,
            "target" : 34962
        },
        {
            "buffer" : 0,
            "byteLength" : 3108,
            "byteOffset" : 2060,
            "target" : 34963
        },
        {
            "buffer" : 0,
            "byteLength" : 18648,
            "byteOffset" : 5168,
            "target" : 34962
        },
        {
            "buffer" : 0,
            "byteLength" : 18648,
            "byteOffset" : 23816,
            "target" : 34962
        },
        {
            "buffer" : 0,
            "byteLength" : 24864,
            "byteOffset" : 42464,
            "target" : 34962
        },
        {
            "buffer" : 0,
            "byteLength" : 12432,
            "byteOffset" : 67328,
            "target" : 34962
        },
        {
            "buffer" : 0,
            "byteLength" : 18648,
            "byteOffset" : 79760
        },
        {
            "buffer" : 0,
            "byteLength" : 18648,
            "byteOffset" : 98408
        },
        {
            "buffer" : 0,
            "byteLength" : 18648,
            "byteOffset" : 117056
        },
        {
            "buffer" : 0,
            "byteLength" : 18648,
            "byteOffset" : 135704
        },
        {
            "buffer" : 0,
            "byteLength" : 18648,
            "byteOffset" : 154352
        },
        {
            "buffer" : 0,
            "byteLength" : 18648,
            "byteOffset" : 173000
        },
        {
            "buffer" : 0,
            "byteLength" : 18648,
            "byteOffset" : 191648
        },
        {
            "buffer" : 0,
            "byteLength" : 18648,
            "byteOffset" : 210296
        },
        {
            "buffer" : 0,
            "byteLength" : 18648,
            "byteOffset" : 228944
        },
        {
            "buffer" : 0,
            "byteLength" : 18648,
            "byteOffset" : 247592
        },
        {
            "buffer" : 0,
            "byteLength" : 18648,
            "byteOffset" : 266240
        },
        {
            "buffer" : 0,
            "byteLength" : 18648,
            "byteOffset" : 284888
        },
        {
            "buffer" : 0,
            "byteLength" : 44,
            "byteOffset" : 303536
        },
        {
            "buffer" : 0,
            "byteLength" : 176,
            "byteOffset" : 303580
        },
        {
            "buffer" : 0,
            "byteLength" : 44,
            "byteOffset" : 303756
        },
        {
            "buffer" : 0,
            "byteLength" : 176,
            "byteOffset" : 303800
        },
        {
            "buffer" : 0,
            "byteLength" : 60,
            "byteOffset" : 303976
        },
        {
            "buffer" : 0,
            "byteLength" : 240,
            "byteOffset" : 304036
        }
    ],
    "buffers" : [
        {
            "byteLength" : 304276,
            "uri" : "banana.bin"
        }
    ],
    "images" : [
        {
            "name" : "Yellow.png",
            "uri" : "Yellow.png.png"
        },
        {
            "name" : "ORM-02.png",
            "uri" : "ORM-02.png.png"
        },
        {
            "name" : "Normals-02.png",
            "uri" : "Normals-02.png.png"
        }
    ],
    "materials" : [
        {
            "name" : "03___Default",
            "pbrMetallicRoughness" : {
                "baseColorFactor" : [
                    0.02509804107394875,
                    0.02509804107394875,
                    0.02509804107394875,
                    1.0
                ],
                "metallicFactor" : 0.0
            }
        },
        {
            "name" : "Material.001",
            "normalTexture" : {
                "index" : 2,
                "scale" : 0.10000000149011612
            },
            "pbrMetallicRoughness" : {
                "baseColorTexture" : {
                    "index" : 0
                },
                "metallicRoughnessTexture" : {
                    "index" : 1
                },
                "roughnessFactor" : 0.0
            }
        }
    ],
    "meshes" : [
        {
            "name" : "Obj_000001",
            "primitives" : [
                {
                    "attributes" : {
                        "NORMAL" : 2,
                        "POSITION" : 1,
                        "TANGENT" : 3,
                        "TEXCOORD_0" : 4
                    },
                    "indices" : 0,
                    "material" : 0
                }
            ]
        },
        {
            "extras" : {
                "targetNames" : [
                    "Wiggle-01",
                    "Wiggle-02",
                    "Explode-01",
                    "Disappear-01"
                ]
            },
            "name" : "Obj_000002",
            "primitives" : [
                {
                    "attributes" : {
                        "NORMAL" : 7,
                        "POSITION" : 6,
                        "TANGENT" : 8,
                        "TEXCOORD_0" : 9
                    },
                    "indices" : 5,
                    "material" : 1,
                    "targets" : [
                        {
                            "NORMAL" : 11,
                            "POSITION" : 10,
                            "TANGENT" : 12
                        },
                        {
                            "NORMAL" : 14,
                            "POSITION" : 13,
                            "TANGENT" : 15
                        },
                        {
                            "NORMAL" : 17,
                            "POSITION" : 16,
                            "TANGENT" : 18
                        },
                        {
                            "NORMAL" : 20,
                            "POSITION" : 19,
                            "TANGENT" : 21
                        }
                    ]
                }
            ],
            "weights" : [
                0.0,
                0.0,
                0.0,
                0.0
            ]
        }
    ],
    "nodes" : [
        {
            "name" : "Camera",
            "rotation" : [
                0.483536034822464,
                0.33687159419059753,
                -0.20870360732078552,
                0.7804827094078064
            ],
            "translation" : [
                7.481131553649902,
                5.34366512298584,
                6.5076398849487305
            ]
        },
        {
            "name" : "Lamp",
            "rotation" : [
                0.16907575726509094,
                0.7558802962303162,
                -0.27217137813568115,
                0.570947527885437
            ],
            "scale" : [
                1.0,
                1.0,
                0.9999999403953552
            ],
            "translation" : [
                4.076245307922363,
                5.903861999511719,
                -1.0054539442062378
            ]
        },
        {
            "mesh" : 0,
            "name" : "Obj_000001",
            "rotation" : [
                0.7331390976905823,
                0.0,
                -0.0,
                0.6800787448883057
            ],
            "scale" : [
                0.009999999776482582,
                0.009999999776482582,
                0.009999999776482582
            ]
        },
        {
            "mesh" : 1,
            "name" : "Obj_000002",
            "rotation" : [
                0.7331390976905823,
                0.0,
                -0.0,
                0.6800787448883057
            ],
            "scale" : [
                0.0678621381521225,
                0.0678621381521225,
                0.0678621381521225
            ]
        }
    ],
    "samplers" : [
        {}
    ],
    "scene" : 0,
    "scenes" : [
        {
            "name" : "Scene",
            "nodes" : [
                3,
                2,
                1,
                0
            ]
        }
    ],
    "textures" : [
        {
            "sampler" : 0,
            "source" : 0
        },
        {
            "sampler" : 0,
            "source" : 1
        },
        {
            "sampler" : 0,
            "source" : 2
        }
    ]
}
