{
    "accessors" : [
        {
            "bufferView" : 0,
            "componentType" : 5123,
            "count" : 15360,
            "max" : [
                15359
            ],
            "min" : [
                0
            ],
            "type" : "SCALAR"
        },
        {
            "bufferView" : 1,
            "componentType" : 5126,
            "count" : 15360,
            "max" : [
                0.9510578513145447,
                1.0,
                0.9999999403953552
            ],
            "min" : [
                -0.9510578513145447,
                -1.0,
                -0.9999999403953552
            ],
            "type" : "VEC3"
        },
        {
            "bufferView" : 2,
            "componentType" : 5126,
            "count" : 15360,
            "max" : [
                0.9920774102210999,
                0.9435242414474487,
                0.9435217976570129
            ],
            "min" : [
                -0.9920774102210999,
                -0.9435242414474487,
                -0.9435217976570129
            ],
            "type" : "VEC3"
        },
        {
            "bufferView" : 3,
            "componentType" : 5126,
            "count" : 15360,
            "max" : [
                0.8623010516166687,
                0.5257302522659302,
                0.9502627849578857,
                1.0
            ],
            "min" : [
                -0.9687129855155945,
                -0.79793781042099,
                -0.9455083012580872,
                1.0
            ],
            "type" : "VEC4"
        },
        {
            "bufferView" : 4,
            "componentType" : 5126,
            "count" : 15360,
            "max" : [
                1.0,
                1.0
            ],
            "min" : [
                0.0,
                0.0
            ],
            "type" : "VEC2"
        },
        {
            "bufferView" : 5,
            "componentType" : 5126,
            "count" : 15360,
            "max" : [
                0.8567141890525818,
                0.3914799094200134,
                0.23335230350494385
            ],
            "min" : [
                -0.14124318957328796,
                -0.08053970336914062,
                -0.2934771478176117
            ],
            "type" : "VEC3"
        },
        {
            "bufferView" : 6,
            "componentType" : 5126,
            "count" : 15360,
            "max" : [
                1.1631221771240234,
                1.6204402446746826,
                1.9307637214660645
            ],
            "min" : [
                -1.6731178760528564,
                -1.7027579545974731,
                -1.7242507934570312
            ],
            "type" : "VEC3"
        },
        {
            "bufferView" : 7,
            "componentType" : 5126,
            "count" : 15360,
            "max" : [
                0.9953997731208801,
                0.9997001886367798,
                0.999559760093689
            ],
            "min" : [
                -0.9996708631515503,
                -0.9994861483573914,
                -0.9999226331710815
            ],
            "type" : "VEC3"
        },
        {
            "bufferView" : 8,
            "componentType" : 5126,
            "count" : 15360,
            "max" : [
                -12.514182090759277,
                5.960464477539062e-07,
                0.0
            ],
            "min" : [
                -12.86158561706543,
                5.364418029785156e-07,
                0.0
            ],
            "type" : "VEC3"
        },
        {
            "bufferView" : 9,
            "componentType" : 5126,
            "count" : 15360,
            "max" : [
                0.09160888195037842,
                0.15545010566711426,
                0.14504799246788025
            ],
            "min" : [
                -0.06448531150817871,
                -0.2079109400510788,
                -0.17631331086158752
            ],
            "type" : "VEC3"
        },
        {
            "bufferView" : 10,
            "componentType" : 5126,
            "count" : 15360,
            "max" : [
                0.9820439219474792,
                0.9752671122550964,
                0.9993592500686646
            ],
            "min" : [
                -0.9924729466438293,
                -0.9980974197387695,
                -0.9728557467460632
            ],
            "type" : "VEC3"
        },
        {
            "bufferView" : 11,
            "componentType" : 5126,
            "count" : 4,
            "max" : [
                0.8333333333333334
            ],
            "min" : [
                0.0
            ],
            "type" : "SCALAR"
        },
        {
            "bufferView" : 12,
            "componentType" : 5126,
            "count" : 24,
            "max" : [
                3.2794566035270685
            ],
            "min" : [
                -3.279456710815429
            ],
            "type" : "SCALAR"
        }
    ],
    "animations" : [
        {
            "channels" : [
                {
                    "sampler" : 0,
                    "target" : {
                        "node" : 0,
                        "path" : "weights"
                    }
                }
            ],
            "name" : "Beat",
            "samplers" : [
                {
                    "input" : 11,
                    "interpolation" : "CUBICSPLINE",
                    "output" : 12
                }
            ]
        }
    ],
    "asset" : {
        "generator" : "Khronos Blender glTF 2.0 exporter",
        "version" : "2.0"
    },
    "bufferViews" : [
        {
            "buffer" : 0,
            "byteLength" : 30720,
            "byteOffset" : 0,
            "target" : 34963
        },
        {
            "buffer" : 0,
            "byteLength" : 184320,
            "byteOffset" : 30720,
            "target" : 34962
        },
        {
            "buffer" : 0,
            "byteLength" : 184320,
            "byteOffset" : 215040,
            "target" : 34962
        },
        {
            "buffer" : 0,
            "byteLength" : 245760,
            "byteOffset" : 399360,
            "target" : 34962
        },
        {
            "buffer" : 0,
            "byteLength" : 122880,
            "byteOffset" : 645120,
            "target" : 34962
        },
        {
            "buffer" : 0,
            "byteLength" : 184320,
            "byteOffset" : 768000
        },
        {
            "buffer" : 0,
            "byteLength" : 184320,
            "byteOffset" : 952320
        },
        {
            "buffer" : 0,
            "byteLength" : 184320,
            "byteOffset" : 1136640
        },
        {
            "buffer" : 0,
            "byteLength" : 184320,
            "byteOffset" : 1320960
        },
        {
            "buffer" : 0,
            "byteLength" : 184320,
            "byteOffset" : 1505280
        },
        {
            "buffer" : 0,
            "byteLength" : 184320,
            "byteOffset" : 1689600
        },
        {
            "buffer" : 0,
            "byteLength" : 16,
            "byteOffset" : 1873920
        },
        {
            "buffer" : 0,
            "byteLength" : 96,
            "byteOffset" : 1873936
        }
    ],
    "buffers" : [
        {
            "byteLength" : 1874032,
            "uri" : "Debris-01.bin"
        }
    ],
    "images" : [
        {
            "name" : "Color-stone.png",
            "uri" : "Color-stone.png.png"
        },
        {
            "name" : "ORM-stone.png",
            "uri" : "ORM-stone.png.png"
        },
        {
            "name" : "Normals-stone.png",
            "uri" : "Normals-stone.png.png"
        }
    ],
    "materials" : [
        {
            "name" : "Material.005",
            "normalTexture" : {
                "index" : 2,
                "scale" : 0.2999999225139618
            },
            "pbrMetallicRoughness" : {
                "baseColorTexture" : {
                    "index" : 0
                },
                "metallicFactor" : 0.13181817531585693,
                "metallicRoughnessTexture" : {
                    "index" : 1
                }
            }
        }
    ],
    "meshes" : [
        {
            "extras" : {
                "targetNames" : [
                    "Rock-01",
                    "Down"
                ]
            },
            "name" : "Icosphere.001",
            "primitives" : [
                {
                    "attributes" : {
                        "NORMAL" : 2,
                        "POSITION" : 1,
                        "TANGENT" : 3,
                        "TEXCOORD_0" : 4
                    },
                    "indices" : 0,
                    "material" : 0,
                    "targets" : [
                        {
                            "NORMAL" : 6,
                            "POSITION" : 5,
                            "TANGENT" : 7
                        },
                        {
                            "NORMAL" : 9,
                            "POSITION" : 8,
                            "TANGENT" : 10
                        }
                    ]
                }
            ],
            "weights" : [
                0.0,
                1.0
            ]
        }
    ],
    "nodes" : [
        {
            "mesh" : 0,
            "name" : "Debris",
            "rotation" : [
                0.0,
                0.0,
                0.7071068286895752,
                0.7071068286895752
            ],
            "scale" : [
                0.05646545812487602,
                0.05646545812487602,
                0.05646545812487602
            ],
            "translation" : [
                -0.06990277767181396,
                1.2480759620666504,
                0.20976638793945312
            ]
        }
    ],
    "samplers" : [
        {}
    ],
    "scene" : 0,
    "scenes" : [
        {
            "name" : "Scene",
            "nodes" : [
                0
            ]
        }
    ],
    "textures" : [
        {
            "sampler" : 0,
            "source" : 0
        },
        {
            "sampler" : 0,
            "source" : 1
        },
        {
            "sampler" : 0,
            "source" : 2
        }
    ]
}
