{
  "asset": {
    "version": "2.0",
    "generator": "GLTFExporter"
  },
  "scenes": [
    {
      "nodes": [
        0,
        2
      ],
      "name": "Scene"
    }
  ],
  "scene": 0,
  "nodes": [
    {
      "matrix": [
        1,
        0,
        0,
        0,
        0,
        1,
        0,
        0,
        0,
        0,
        1,
        0,
        -2.325925001276978,
        -1.8711358581749749,
        -1.2832930514287293,
        1
      ],
      "name": "debris-stick-web.gltf"
    },
    {
      "matrix": [
        1.932730292480895e-9,
        0.05646545619214573,
        0,
        0,
        -0.05646545619214573,
        1.932730292480895e-9,
        0,
        0,
        0,
        0,
        0.05646545812487602,
        0,
        -0.00006651797885048882,
        0.677774248144444,
        1.181840579551659,
        1
      ],
      "name": "Debris002",
      "extras": {
        "targetNames": [
          "Rock-01",
          "Down"
        ],
        "name": "Debris.002"
      },
      "mesh": 0
    },
    {
      "matrix": [
        1,
        0,
        0,
        0,
        0,
        1,
        0,
        0,
        0,
        0,
        1,
        0,
        0,
        0.035888947416430395,
        -1.1617017849415114,
        1
      ],
      "name": "debris-rock-web.gltf",
      "children": [
        1
      ]
    }
  ],
  "bufferViews": [
    {
      "buffer": 0,
      "byteOffset": 0,
      "byteLength": 184320,
      "target": 34962,
      "byteStride": 12
    },
    {
      "buffer": 0,
      "byteOffset": 184320,
      "byteLength": 184320,
      "target": 34962,
      "byteStride": 12
    },
    {
      "buffer": 0,
      "byteOffset": 368640,
      "byteLength": 122880,
      "target": 34962,
      "byteStride": 8
    },
    {
      "buffer": 0,
      "byteOffset": 491520,
      "byteLength": 184320,
      "target": 34962,
      "byteStride": 12
    },
    {
      "buffer": 0,
      "byteOffset": 675840,
      "byteLength": 184320,
      "target": 34962,
      "byteStride": 12
    },
    {
      "buffer": 0,
      "byteOffset": 860160,
      "byteLength": 184320,
      "target": 34962,
      "byteStride": 12
    },
    {
      "buffer": 0,
      "byteOffset": 1044480,
      "byteLength": 184320,
      "target": 34962,
      "byteStride": 12
    },
    {
      "buffer": 0,
      "byteOffset": 1228800,
      "byteLength": 30720,
      "target": 34963
    }
  ],
  "buffers": [
    {
      "byteLength": 1259520,
      "uri": "data:application/octet-stream;base64,"
    }
  ],
  "accessors": [
    {
      "bufferView": 0,
      "componentType": 5126,
      "count": 15360,
      "max": [
        0.9510578513145447,
        1,
        0.9999999403953552
      ],
      "min": [
        -0.9510578513145447,
        -1,
        -0.9999999403953552
      ],
      "type": "VEC3"
    },
    {
      "bufferView": 1,
      "componentType": 5126,
      "count": 15360,
      "max": [
        0.9920774102210999,
        0.9435242414474487,
        0.9435217976570129
      ],
      "min": [
        -0.9920774102210999,
        -0.9435242414474487,
        -0.9435217976570129
      ],
      "type": "VEC3"
    },
    {
      "bufferView": 2,
      "componentType": 5126,
      "count": 15360,
      "max": [
        1,
        1
      ],
      "min": [
        0,
        0
      ],
      "type": "VEC2"
    },
    {
      "bufferView": 3,
      "componentType": 5126,
      "count": 15360,
      "max": [
        0.8567141890525818,
        0.3914799094200134,
        0.23335230350494385
      ],
      "min": [
        -0.14124318957328796,
        -0.08053970336914062,
        -0.2934771478176117
      ],
      "type": "VEC3"
    },
    {
      "bufferView": 4,
      "componentType": 5126,
      "count": 15360,
      "max": [
        1.1631221771240234,
        1.6204402446746826,
        1.9307637214660645
      ],
      "min": [
        -1.6731178760528564,
        -1.7027579545974731,
        -1.7242507934570312
      ],
      "type": "VEC3"
    },
    {
      "bufferView": 5,
      "componentType": 5126,
      "count": 15360,
      "max": [
        -12.514182090759277,
        5.960464477539062e-7,
        0
      ],
      "min": [
        -12.86158561706543,
        5.364418029785156e-7,
        0
      ],
      "type": "VEC3"
    },
    {
      "bufferView": 6,
      "componentType": 5126,
      "count": 15360,
      "max": [
        0.09160888195037842,
        0.15545010566711426,
        0.14504799246788025
      ],
      "min": [
        -0.06448531150817871,
        -0.2079109400510788,
        -0.17631331086158752
      ],
      "type": "VEC3"
    },
    {
      "bufferView": 7,
      "componentType": 5123,
      "count": 15360,
      "max": [
        15359
      ],
      "min": [
        0
      ],
      "type": "SCALAR"
    }
  ],
  "materials": [
    {
      "pbrMetallicRoughness": {
        "metallicFactor": 0.13181817531585693,
        "roughnessFactor": 1,
        "metallicRoughnessTexture": {
          "index": 0
        },
        "baseColorTexture": {
          "index": 1
        }
      },
      "normalTexture": {
        "index": 2,
        "scale": 1
      },
      "doubleSided": true,
      "name": "Material.006"
    }
  ],
  "textures": [
    {
      "sampler": 0,
      "source": 0
    },
    {
      "sampler": 1,
      "source": 1
    },
    {
      "sampler": 2,
      "source": 2
    }
  ],
  "samplers": [
    {
      "magFilter": 9729,
      "minFilter": 9987,
      "wrapS": 10497,
      "wrapT": 10497
    },
    {
      "magFilter": 9729,
      "minFilter": 9987,
      "wrapS": 10497,
      "wrapT": 10497
    },
    {
      "magFilter": 9729,
      "minFilter": 9987,
      "wrapS": 10497,
      "wrapT": 10497
    }
  ],
  "images": [
    {
      "mimeType": "image/jpeg",
      "uri": "data:image/jpeg;base64,"
    },
    {
      "mimeType": "image/png",
      "uri": "data:image/png;base64,"
    },
    {
      "mimeType": "image/jpeg",
      "uri": "data:image/jpeg;base64,"
    }
  ],
  "meshes": [
    {
      "weights": [
        0,
        1
      ],
      "extras": {
        "targetNames": [
          "Rock-01",
          "Down"
        ]
      },
      "primitives": [
        {
          "mode": 4,
          "attributes": {
            "POSITION": 0,
            "NORMAL": 1,
            "TEXCOORD_0": 2
          },
          "targets": [
            {
              "POSITION": 3,
              "NORMAL": 4
            },
            {
              "POSITION": 5,
              "NORMAL": 6
            }
          ],
          "indices": 7,
          "material": 0
        }
      ]
    }
  ]
}