{
    "accessors" : [
        {
            "bufferView" : 0,
            "componentType" : 5123,
            "count" : 46080,
            "max" : [
                7810
            ],
            "min" : [
                0
            ],
            "type" : "SCALAR"
        },
        {
            "bufferView" : 1,
            "componentType" : 5126,
            "count" : 7811,
            "max" : [
                0.8283669352531433,
                0.828366756439209,
                0.8283671140670776
            ],
            "min" : [
                -0.8283665180206299,
                -0.828366756439209,
                -0.8283666968345642
            ],
            "type" : "VEC3"
        },
        {
            "bufferView" : 2,
            "componentType" : 5126,
            "count" : 7811,
            "max" : [
                0.999969482421875,
                1.0,
                1.0
            ],
            "min" : [
                -1.0,
                -1.0,
                -1.0
            ],
            "type" : "VEC3"
        },
        {
            "bufferView" : 3,
            "componentType" : 5126,
            "count" : 7811,
            "max" : [
                1.0,
                0.5340642333030701,
                0.9999993443489075,
                1.0
            ],
            "min" : [
                -1.0,
                -0.57328861951828,
                -0.9999993443489075,
                1.0
            ],
            "type" : "VEC4"
        },
        {
            "bufferView" : 4,
            "componentType" : 5126,
            "count" : 7811,
            "max" : [
                0.9716695547103882,
                0.8150449991226196
            ],
            "min" : [
                0.032351672649383545,
                0.19693022966384888
            ],
            "type" : "VEC2"
        },
        {
            "bufferView" : 5,
            "componentType" : 5126,
            "count" : 7811,
            "max" : [
                0.11730021238327026,
                0.13102519512176514,
                0.1411638855934143
            ],
            "min" : [
                -0.11175596714019775,
                -0.1337602734565735,
                -0.13278019428253174
            ],
            "type" : "VEC3"
        },
        {
            "bufferView" : 6,
            "componentType" : 5126,
            "count" : 7811,
            "max" : [
                0.9425044655799866,
                1.329585075378418,
                0.8706110119819641
            ],
            "min" : [
                -0.9652898907661438,
                -1.8613383769989014,
                -0.8526365756988525
            ],
            "type" : "VEC3"
        },
        {
            "bufferView" : 7,
            "componentType" : 5126,
            "count" : 7811,
            "max" : [
                0.9997920989990234,
                0.9995994567871094,
                0.9993389248847961
            ],
            "min" : [
                -0.9999381303787231,
                -0.9997881054878235,
                -0.9995313882827759
            ],
            "type" : "VEC3"
        },
        {
            "bufferView" : 8,
            "componentType" : 5126,
            "count" : 7811,
            "max" : [
                -0.11264416575431824,
                0.45103687047958374,
                0.5674301981925964
            ],
            "min" : [
                -0.7312570214271545,
                -0.6814980506896973,
                -0.2714958190917969
            ],
            "type" : "VEC3"
        },
        {
            "bufferView" : 9,
            "componentType" : 5126,
            "count" : 7811,
            "max" : [
                0.7337324619293213,
                0.6191908717155457,
                0.9069894552230835
            ],
            "min" : [
                -0.8731650114059448,
                -1.8897336721420288,
                -0.9276421070098877
            ],
            "type" : "VEC3"
        },
        {
            "bufferView" : 10,
            "componentType" : 5126,
            "count" : 7811,
            "max" : [
                0.9937821626663208,
                0.9998624324798584,
                0.9998409748077393
            ],
            "min" : [
                -0.996276319026947,
                -0.9975772500038147,
                -0.9999574422836304
            ],
            "type" : "VEC3"
        },
        {
            "bufferView" : 11,
            "componentType" : 5126,
            "count" : 7811,
            "max" : [
                0.051005009561777115,
                0.016657471656799316,
                0.05100485682487488
            ],
            "min" : [
                -0.051004841923713684,
                -0.016657710075378418,
                -0.05100502446293831
            ],
            "type" : "VEC3"
        },
        {
            "bufferView" : 12,
            "componentType" : 5126,
            "count" : 7811,
            "max" : [
                0.1094079539179802,
                0.05994540452957153,
                0.10941001027822495
            ],
            "min" : [
                -0.10941097885370255,
                -0.059945523738861084,
                -0.10940926522016525
            ],
            "type" : "VEC3"
        },
        {
            "bufferView" : 13,
            "componentType" : 5126,
            "count" : 7811,
            "max" : [
                1.0,
                0.9998283386230469,
                0.9999993443489075
            ],
            "min" : [
                -1.0,
                -0.9999574422836304,
                -0.9999993443489075
            ],
            "type" : "VEC3"
        },
        {
            "bufferView" : 14,
            "componentType" : 5126,
            "count" : 7811,
            "max" : [
                2.980232238769531e-07,
                0.3616604208946228,
                -3.2782554626464844e-07
            ],
            "min" : [
                -0.5948129296302795,
                -0.2245822548866272,
                -2.1138529777526855
            ],
            "type" : "VEC3"
        },
        {
            "bufferView" : 15,
            "componentType" : 5126,
            "count" : 7811,
            "max" : [
                1.246881365776062,
                1.2607464790344238,
                1.3744615316390991
            ],
            "min" : [
                -0.7050632238388062,
                -1.0685396194458008,
                -0.6800229549407959
            ],
            "type" : "VEC3"
        },
        {
            "bufferView" : 16,
            "componentType" : 5126,
            "count" : 7811,
            "max" : [
                0.9999974370002747,
                0.9999721646308899,
                0.9998330473899841
            ],
            "min" : [
                -0.9999496340751648,
                -0.9999034404754639,
                -0.9999911189079285
            ],
            "type" : "VEC3"
        },
        {
            "bufferView" : 17,
            "componentType" : 5126,
            "count" : 7811,
            "max" : [
                0.4233967661857605,
                0.7536814212799072,
                2.225315809249878
            ],
            "min" : [
                -3.5762786865234375e-07,
                -0.435502827167511,
                2.086162567138672e-07
            ],
            "type" : "VEC3"
        },
        {
            "bufferView" : 18,
            "componentType" : 5126,
            "count" : 7811,
            "max" : [
                1.6216442584991455,
                1.0912269353866577,
                0.536480724811554
            ],
            "min" : [
                -1.7696294784545898,
                -0.9615623950958252,
                -1.4985346794128418
            ],
            "type" : "VEC3"
        },
        {
            "bufferView" : 19,
            "componentType" : 5126,
            "count" : 7811,
            "max" : [
                0.9997257590293884,
                0.9927931427955627,
                0.9999917149543762
            ],
            "min" : [
                -0.9997809529304504,
                -0.9843381643295288,
                -0.9999512434005737
            ],
            "type" : "VEC3"
        },
        {
            "bufferView" : 20,
            "componentType" : 5126,
            "count" : 7811,
            "max" : [
                0.17198863625526428,
                -1.1920928955078125e-07,
                0.759307861328125
            ],
            "min" : [
                -0.30261024832725525,
                -2.995029926300049,
                -0.5618372559547424
            ],
            "type" : "VEC3"
        },
        {
            "bufferView" : 21,
            "componentType" : 5126,
            "count" : 7811,
            "max" : [
                1.7457382678985596,
                1.9481348991394043,
                1.986567735671997
            ],
            "min" : [
                -1.5282716751098633,
                -0.8487095832824707,
                -1.2886818647384644
            ],
            "type" : "VEC3"
        },
        {
            "bufferView" : 22,
            "componentType" : 5126,
            "count" : 7811,
            "max" : [
                0.9997813701629639,
                0.9994764924049377,
                0.9999994039535522
            ],
            "min" : [
                -0.9995711445808411,
                -0.9996130466461182,
                -0.9999994039535522
            ],
            "type" : "VEC3"
        },
        {
            "bufferView" : 23,
            "componentType" : 5126,
            "count" : 7811,
            "max" : [
                0.20722129940986633,
                2.226626396179199,
                1.1567941904067993
            ],
            "min" : [
                -0.40198516845703125,
                4.172325134277344e-07,
                -0.8436229825019836
            ],
            "type" : "VEC3"
        },
        {
            "bufferView" : 24,
            "componentType" : 5126,
            "count" : 7811,
            "max" : [
                1.5290963649749756,
                0.5093313455581665,
                0.970998227596283
            ],
            "min" : [
                -1.6371686458587646,
                -1.753371238708496,
                -1.4477862119674683
            ],
            "type" : "VEC3"
        },
        {
            "bufferView" : 25,
            "componentType" : 5126,
            "count" : 7811,
            "max" : [
                0.9999916553497314,
                0.999208927154541,
                0.9999752640724182
            ],
            "min" : [
                -0.9999350905418396,
                -0.9990354180335999,
                -0.9999848008155823
            ],
            "type" : "VEC3"
        },
        {
            "bufferView" : 26,
            "componentType" : 5126,
            "count" : 7811,
            "max" : [
                0.4544811248779297,
                0.6732349395751953,
                0.7530913352966309
            ],
            "min" : [
                -0.6630598902702332,
                -0.6700958609580994,
                -0.6009258031845093
            ],
            "type" : "VEC3"
        },
        {
            "bufferView" : 27,
            "componentType" : 5126,
            "count" : 7811,
            "max" : [
                1.1317095756530762,
                0.9818943738937378,
                1.2642651796340942
            ],
            "min" : [
                -1.279954195022583,
                -1.2018303871154785,
                -1.3528168201446533
            ],
            "type" : "VEC3"
        },
        {
            "bufferView" : 28,
            "componentType" : 5126,
            "count" : 7811,
            "max" : [
                0.9999194741249084,
                0.9997786283493042,
                0.9998388886451721
            ],
            "min" : [
                -1.0,
                -0.9998583793640137,
                -0.9994320869445801
            ],
            "type" : "VEC3"
        },
        {
            "bufferView" : 29,
            "componentType" : 5126,
            "count" : 21,
            "max" : [
                0.8333333333333334
            ],
            "min" : [
                0.0
            ],
            "type" : "SCALAR"
        },
        {
            "bufferView" : 30,
            "componentType" : 5126,
            "count" : 168,
            "max" : [
                1.0
            ],
            "min" : [
                0.0
            ],
            "type" : "SCALAR"
        }
    ],
    "animations" : [
        {
            "channels" : [
                {
                    "sampler" : 0,
                    "target" : {
                        "node" : 0,
                        "path" : "weights"
                    }
                }
            ],
            "name" : "Heartbeat Idle",
            "samplers" : [
                {
                    "input" : 29,
                    "interpolation" : "LINEAR",
                    "output" : 30
                }
            ]
        }
    ],
    "asset" : {
        "generator" : "Khronos Blender glTF 2.0 exporter",
        "version" : "2.0"
    },
    "bufferViews" : [
        {
            "buffer" : 0,
            "byteLength" : 92160,
            "byteOffset" : 0,
            "target" : 34963
        },
        {
            "buffer" : 0,
            "byteLength" : 93732,
            "byteOffset" : 92160,
            "target" : 34962
        },
        {
            "buffer" : 0,
            "byteLength" : 93732,
            "byteOffset" : 185892,
            "target" : 34962
        },
        {
            "buffer" : 0,
            "byteLength" : 124976,
            "byteOffset" : 279624,
            "target" : 34962
        },
        {
            "buffer" : 0,
            "byteLength" : 62488,
            "byteOffset" : 404600,
            "target" : 34962
        },
        {
            "buffer" : 0,
            "byteLength" : 93732,
            "byteOffset" : 467088
        },
        {
            "buffer" : 0,
            "byteLength" : 93732,
            "byteOffset" : 560820
        },
        {
            "buffer" : 0,
            "byteLength" : 93732,
            "byteOffset" : 654552
        },
        {
            "buffer" : 0,
            "byteLength" : 93732,
            "byteOffset" : 748284
        },
        {
            "buffer" : 0,
            "byteLength" : 93732,
            "byteOffset" : 842016
        },
        {
            "buffer" : 0,
            "byteLength" : 93732,
            "byteOffset" : 935748
        },
        {
            "buffer" : 0,
            "byteLength" : 93732,
            "byteOffset" : 1029480
        },
        {
            "buffer" : 0,
            "byteLength" : 93732,
            "byteOffset" : 1123212
        },
        {
            "buffer" : 0,
            "byteLength" : 93732,
            "byteOffset" : 1216944
        },
        {
            "buffer" : 0,
            "byteLength" : 93732,
            "byteOffset" : 1310676
        },
        {
            "buffer" : 0,
            "byteLength" : 93732,
            "byteOffset" : 1404408
        },
        {
            "buffer" : 0,
            "byteLength" : 93732,
            "byteOffset" : 1498140
        },
        {
            "buffer" : 0,
            "byteLength" : 93732,
            "byteOffset" : 1591872
        },
        {
            "buffer" : 0,
            "byteLength" : 93732,
            "byteOffset" : 1685604
        },
        {
            "buffer" : 0,
            "byteLength" : 93732,
            "byteOffset" : 1779336
        },
        {
            "buffer" : 0,
            "byteLength" : 93732,
            "byteOffset" : 1873068
        },
        {
            "buffer" : 0,
            "byteLength" : 93732,
            "byteOffset" : 1966800
        },
        {
            "buffer" : 0,
            "byteLength" : 93732,
            "byteOffset" : 2060532
        },
        {
            "buffer" : 0,
            "byteLength" : 93732,
            "byteOffset" : 2154264
        },
        {
            "buffer" : 0,
            "byteLength" : 93732,
            "byteOffset" : 2247996
        },
        {
            "buffer" : 0,
            "byteLength" : 93732,
            "byteOffset" : 2341728
        },
        {
            "buffer" : 0,
            "byteLength" : 93732,
            "byteOffset" : 2435460
        },
        {
            "buffer" : 0,
            "byteLength" : 93732,
            "byteOffset" : 2529192
        },
        {
            "buffer" : 0,
            "byteLength" : 93732,
            "byteOffset" : 2622924
        },
        {
            "buffer" : 0,
            "byteLength" : 84,
            "byteOffset" : 2716656
        },
        {
            "buffer" : 0,
            "byteLength" : 672,
            "byteOffset" : 2716740
        }
    ],
    "buffers" : [
        {
            "byteLength" : 2717412,
            "uri" : "Mode-01.bin"
        }
    ],
    "images" : [
        {
            "name" : "Gradient-01",
            "uri" : "Gradient-01.png"
        },
        {
            "name" : "ORM-01",
            "uri" : "ORM-01.png"
        },
        {
            "name" : "Normals-01",
            "uri" : "Normals-01.png"
        }
    ],
    "materials" : [
        {
            "name" : "Material.002",
            "normalTexture" : {
                "index" : 2,
                "scale" : 0.5999999046325684
            },
            "pbrMetallicRoughness" : {
                "baseColorTexture" : {
                    "index" : 0
                },
                "metallicRoughnessTexture" : {
                    "index" : 1
                },
                "roughnessFactor" : 0.059090908616781235
            }
        }
    ],
    "meshes" : [
        {
            "extras" : {
                "targetNames" : [
                    "Distort 01",
                    "Heart",
                    "Smooth",
                    "Organism Right",
                    "Organism Left",
                    "Organism Down",
                    "Organism Up",
                    "Extreme"
                ]
            },
            "name" : "Sphere",
            "primitives" : [
                {
                    "attributes" : {
                        "NORMAL" : 2,
                        "POSITION" : 1,
                        "TANGENT" : 3,
                        "TEXCOORD_0" : 4
                    },
                    "indices" : 0,
                    "material" : 0,
                    "targets" : [
                        {
                            "NORMAL" : 6,
                            "POSITION" : 5,
                            "TANGENT" : 7
                        },
                        {
                            "NORMAL" : 9,
                            "POSITION" : 8,
                            "TANGENT" : 10
                        },
                        {
                            "NORMAL" : 12,
                            "POSITION" : 11,
                            "TANGENT" : 13
                        },
                        {
                            "NORMAL" : 15,
                            "POSITION" : 14,
                            "TANGENT" : 16
                        },
                        {
                            "NORMAL" : 18,
                            "POSITION" : 17,
                            "TANGENT" : 19
                        },
                        {
                            "NORMAL" : 21,
                            "POSITION" : 20,
                            "TANGENT" : 22
                        },
                        {
                            "NORMAL" : 24,
                            "POSITION" : 23,
                            "TANGENT" : 25
                        },
                        {
                            "NORMAL" : 27,
                            "POSITION" : 26,
                            "TANGENT" : 28
                        }
                    ]
                }
            ],
            "weights" : [
                0.0,
                0.30000001192092896,
                1.0,
                0.0,
                0.0,
                0.0,
                0.0,
                0.0
            ]
        }
    ],
    "nodes" : [
        {
            "mesh" : 0,
            "name" : "Organism",
            "rotation" : [
                -0.008058920502662659,
                -0.7668759822845459,
                -0.006743574049323797,
                0.6417093873023987
            ],
            "scale" : [
                2.3708884716033936,
                2.3708879947662354,
                2.3708879947662354
            ],
            "translation" : [
                -0.07912492752075195,
                0.388001412153244,
                0.17233628034591675
            ]
        }
    ],
    "samplers" : [
        {}
    ],
    "scene" : 0,
    "scenes" : [
        {
            "name" : "Scene",
            "nodes" : [
                0
            ]
        }
    ],
    "textures" : [
        {
            "sampler" : 0,
            "source" : 0
        },
        {
            "sampler" : 0,
            "source" : 1
        },
        {
            "sampler" : 0,
            "source" : 2
        }
    ]
}
