{
    "accessors" : [
        {
            "bufferView" : 0,
            "componentType" : 5125,
            "count" : 112896,
            "max" : [
                112895
            ],
            "min" : [
                0
            ],
            "type" : "SCALAR"
        },
        {
            "bufferView" : 1,
            "componentType" : 5126,
            "count" : 112896,
            "max" : [
                1.8113352060317993,
                1.6471463441848755,
                1.3683797121047974
            ],
            "min" : [
                -1.6398179531097412,
                -2.097059726715088,
                -1.49501633644104
            ],
            "type" : "VEC3"
        },
        {
            "bufferView" : 2,
            "componentType" : 5126,
            "count" : 112896,
            "max" : [
                0.9999605417251587,
                0.9997791051864624,
                0.9999967217445374
            ],
            "min" : [
                -0.9998458027839661,
                -0.9999933838844299,
                -0.9997495412826538
            ],
            "type" : "VEC3"
        },
        {
            "bufferView" : 3,
            "componentType" : 5126,
            "count" : 112896,
            "max" : [
                0.9997825026512146,
                0.9933081865310669,
                0.9996775388717651,
                1.0
            ],
            "min" : [
                -0.9524589776992798,
                -0.9998849630355835,
                -0.9999991655349731,
                1.0
            ],
            "type" : "VEC4"
        },
        {
            "bufferView" : 4,
            "componentType" : 5126,
            "count" : 112896,
            "max" : [
                0.9992190003395081,
                0.999218987650238
            ],
            "min" : [
                0.0007810123497620225,
                0.005847454071044922
            ],
            "type" : "VEC2"
        },
        {
            "bufferView" : 5,
            "componentType" : 5126,
            "count" : 112896,
            "max" : [
                0.0,
                0.12938976287841797,
                1.1920928955078125e-07
            ],
            "min" : [
                -0.5714703798294067,
                0.0,
                -0.0006897449493408203
            ],
            "type" : "VEC3"
        },
        {
            "bufferView" : 6,
            "componentType" : 5126,
            "count" : 112896,
            "max" : [
                0.2399108111858368,
                0.1837543249130249,
                0.30973929166793823
            ],
            "min" : [
                -0.24285238981246948,
                -0.13119855523109436,
                -0.4049871861934662
            ],
            "type" : "VEC3"
        },
        {
            "bufferView" : 7,
            "componentType" : 5126,
            "count" : 112896,
            "max" : [
                0.9999973773956299,
                0.9999977350234985,
                0.9999880194664001
            ],
            "min" : [
                -0.9998530745506287,
                -0.9999992251396179,
                -0.9999992847442627
            ],
            "type" : "VEC3"
        },
        {
            "bufferView" : 8,
            "componentType" : 5126,
            "count" : 112896,
            "max" : [
                0.5682456493377686,
                0.24799644947052002,
                0.14983630180358887
            ],
            "min" : [
                -0.018340468406677246,
                -0.010782510042190552,
                -0.14983642101287842
            ],
            "type" : "VEC3"
        },
        {
            "bufferView" : 9,
            "componentType" : 5126,
            "count" : 112896,
            "max" : [
                0.15350225567817688,
                0.2701830267906189,
                0.4290708899497986
            ],
            "min" : [
                -0.41670817136764526,
                -0.6982742547988892,
                -0.3461057245731354
            ],
            "type" : "VEC3"
        },
        {
            "bufferView" : 10,
            "componentType" : 5126,
            "count" : 112896,
            "max" : [
                0.999964714050293,
                0.9996296763420105,
                0.9998596906661987
            ],
            "min" : [
                -0.9999738931655884,
                -0.9999967813491821,
                -0.9999864101409912
            ],
            "type" : "VEC3"
        },
        {
            "bufferView" : 11,
            "componentType" : 5126,
            "count" : 112896,
            "max" : [
                0.34015583992004395,
                0.17363989353179932,
                8.940696716308594e-08
            ],
            "min" : [
                0.0,
                -0.189186692237854,
                -0.0006897449493408203
            ],
            "type" : "VEC3"
        },
        {
            "bufferView" : 12,
            "componentType" : 5126,
            "count" : 112896,
            "max" : [
                0.20739084482192993,
                0.5941928029060364,
                0.3218576908111572
            ],
            "min" : [
                -0.2279672622680664,
                -0.07948493957519531,
                -0.25643256306648254
            ],
            "type" : "VEC3"
        },
        {
            "bufferView" : 13,
            "componentType" : 5126,
            "count" : 112896,
            "max" : [
                0.9999973773956299,
                0.9998934268951416,
                0.9999814033508301
            ],
            "min" : [
                -0.9999879598617554,
                -0.999998927116394,
                -0.9999983906745911
            ],
            "type" : "VEC3"
        },
        {
            "bufferView" : 14,
            "componentType" : 5126,
            "count" : 112896,
            "max" : [
                0.41114485263824463,
                0.3457292318344116,
                0.2583204507827759
            ],
            "min" : [
                -0.3746659755706787,
                -0.8221621513366699,
                -0.2181357741355896
            ],
            "type" : "VEC3"
        },
        {
            "bufferView" : 15,
            "componentType" : 5126,
            "count" : 112896,
            "max" : [
                0.8037519454956055,
                0.3667086362838745,
                0.6384250521659851
            ],
            "min" : [
                -1.1634199619293213,
                -0.5413181781768799,
                -0.6028512120246887
            ],
            "type" : "VEC3"
        },
        {
            "bufferView" : 16,
            "componentType" : 5126,
            "count" : 112896,
            "max" : [
                0.9999509453773499,
                0.9999721646308899,
                0.9999468326568604
            ],
            "min" : [
                -0.9998359680175781,
                -0.9999945759773254,
                -1.0
            ],
            "type" : "VEC3"
        },
        {
            "bufferView" : 17,
            "componentType" : 5126,
            "count" : 11,
            "max" : [
                0.4166666666666667
            ],
            "min" : [
                0.0
            ],
            "type" : "SCALAR"
        },
        {
            "bufferView" : 18,
            "componentType" : 5126,
            "count" : 44,
            "max" : [
                1.0
            ],
            "min" : [
                0.0
            ],
            "type" : "SCALAR"
        }
    ],
    "animations" : [
        {
            "channels" : [
                {
                    "sampler" : 0,
                    "target" : {
                        "node" : 0,
                        "path" : "weights"
                    }
                }
            ],
            "name" : "HeartBeat",
            "samplers" : [
                {
                    "input" : 17,
                    "interpolation" : "LINEAR",
                    "output" : 18
                }
            ]
        }
    ],
    "asset" : {
        "generator" : "Khronos Blender glTF 2.0 exporter",
        "version" : "2.0"
    },
    "bufferViews" : [
        {
            "buffer" : 0,
            "byteLength" : 451584,
            "byteOffset" : 0,
            "target" : 34963
        },
        {
            "buffer" : 0,
            "byteLength" : 1354752,
            "byteOffset" : 451584,
            "target" : 34962
        },
        {
            "buffer" : 0,
            "byteLength" : 1354752,
            "byteOffset" : 1806336,
            "target" : 34962
        },
        {
            "buffer" : 0,
            "byteLength" : 1806336,
            "byteOffset" : 3161088,
            "target" : 34962
        },
        {
            "buffer" : 0,
            "byteLength" : 903168,
            "byteOffset" : 4967424,
            "target" : 34962
        },
        {
            "buffer" : 0,
            "byteLength" : 1354752,
            "byteOffset" : 5870592
        },
        {
            "buffer" : 0,
            "byteLength" : 1354752,
            "byteOffset" : 7225344
        },
        {
            "buffer" : 0,
            "byteLength" : 1354752,
            "byteOffset" : 8580096
        },
        {
            "buffer" : 0,
            "byteLength" : 1354752,
            "byteOffset" : 9934848
        },
        {
            "buffer" : 0,
            "byteLength" : 1354752,
            "byteOffset" : 11289600
        },
        {
            "buffer" : 0,
            "byteLength" : 1354752,
            "byteOffset" : 12644352
        },
        {
            "buffer" : 0,
            "byteLength" : 1354752,
            "byteOffset" : 13999104
        },
        {
            "buffer" : 0,
            "byteLength" : 1354752,
            "byteOffset" : 15353856
        },
        {
            "buffer" : 0,
            "byteLength" : 1354752,
            "byteOffset" : 16708608
        },
        {
            "buffer" : 0,
            "byteLength" : 1354752,
            "byteOffset" : 18063360
        },
        {
            "buffer" : 0,
            "byteLength" : 1354752,
            "byteOffset" : 19418112
        },
        {
            "buffer" : 0,
            "byteLength" : 1354752,
            "byteOffset" : 20772864
        },
        {
            "buffer" : 0,
            "byteLength" : 44,
            "byteOffset" : 22127616
        },
        {
            "buffer" : 0,
            "byteLength" : 176,
            "byteOffset" : 22127660
        }
    ],
    "buffers" : [
        {
            "byteLength" : 22127836,
            "uri" : "Heart.bin"
        }
    ],
    "materials" : [
        {
            "name" : "Material",
            "pbrMetallicRoughness" : {
                "metallicFactor" : 0.0
            }
        }
    ],
    "meshes" : [
        {
            "extras" : {
                "targetNames" : [
                    "Beat 01",
                    "Beat 02",
                    "Beat 03",
                    "Shrivel"
                ]
            },
            "name" : "Cube.001",
            "primitives" : [
                {
                    "attributes" : {
                        "NORMAL" : 2,
                        "POSITION" : 1,
                        "TANGENT" : 3,
                        "TEXCOORD_0" : 4
                    },
                    "indices" : 0,
                    "material" : 0,
                    "targets" : [
                        {
                            "NORMAL" : 6,
                            "POSITION" : 5,
                            "TANGENT" : 7
                        },
                        {
                            "NORMAL" : 9,
                            "POSITION" : 8,
                            "TANGENT" : 10
                        },
                        {
                            "NORMAL" : 12,
                            "POSITION" : 11,
                            "TANGENT" : 13
                        },
                        {
                            "NORMAL" : 15,
                            "POSITION" : 14,
                            "TANGENT" : 16
                        }
                    ]
                }
            ],
            "weights" : [
                0.30000001192092896,
                0.20000000298023224,
                0.0,
                0.0
            ]
        }
    ],
    "nodes" : [
        {
            "mesh" : 0,
            "name" : "Cube.001",
            "translation" : [
                -0.48026323318481445,
                0.5070352554321289,
                0.1809682846069336
            ]
        }
    ],
    "scene" : 0,
    "scenes" : [
        {
            "name" : "Scene",
            "nodes" : [
                0
            ]
        }
    ]
}
