{
    "accessors" : [
        {
            "bufferView" : 0,
            "componentType" : 5125,
            "count" : 761856,
            "max" : [
                507903
            ],
            "min" : [
                0
            ],
            "type" : "SCALAR"
        },
        {
            "bufferView" : 1,
            "componentType" : 5126,
            "count" : 507904,
            "max" : [
                1.4432449340820312,
                1.3724617958068848,
                1.5984961986541748
            ],
            "min" : [
                -1.1978974342346191,
                -1.163017749786377,
                -1.5076029300689697
            ],
            "type" : "VEC3"
        },
        {
            "bufferView" : 2,
            "componentType" : 5126,
            "count" : 507904,
            "max" : [
                0.9999762177467346,
                0.9999948143959045,
                0.9999255537986755
            ],
            "min" : [
                -0.9998666644096375,
                -0.9999967813491821,
                -0.9999977350234985
            ],
            "type" : "VEC3"
        },
        {
            "bufferView" : 3,
            "componentType" : 5126,
            "count" : 507904,
            "max" : [
                0.9519103169441223,
                0.9999838471412659,
                0.8508526086807251,
                1.0
            ],
            "min" : [
                -0.956440806388855,
                -0.9999964237213135,
                -0.9999997615814209,
                1.0
            ],
            "type" : "VEC4"
        },
        {
            "bufferView" : 4,
            "componentType" : 5126,
            "count" : 507904,
            "max" : [
                0.7377365231513977,
                0.9998927712440491
            ],
            "min" : [
                0.00010722875595092773,
                0.00010722875595092773
            ],
            "type" : "VEC2"
        },
        {
            "bufferView" : 5,
            "componentType" : 5126,
            "count" : 507904,
            "max" : [
                3.4032645225524902,
                3.4515206813812256,
                3.851263999938965
            ],
            "min" : [
                -3.4743704795837402,
                -3.421015977859497,
                -3.77535080909729
            ],
            "type" : "VEC3"
        },
        {
            "bufferView" : 6,
            "componentType" : 5126,
            "count" : 507904,
            "max" : [
                1.866341471672058,
                1.9908831119537354,
                1.87155020236969
            ],
            "min" : [
                -1.9421348571777344,
                -1.9957375526428223,
                -1.8650726079940796
            ],
            "type" : "VEC3"
        },
        {
            "bufferView" : 7,
            "componentType" : 5126,
            "count" : 507904,
            "max" : [
                0.9999611973762512,
                0.9999969005584717,
                0.9998698234558105
            ],
            "min" : [
                -0.9999985694885254,
                -0.9999935626983643,
                -0.9999957084655762
            ],
            "type" : "VEC3"
        },
        {
            "bufferView" : 8,
            "componentType" : 5126,
            "count" : 507904,
            "max" : [
                3.3382046222686768,
                3.1376662254333496,
                3.756948471069336
            ],
            "min" : [
                -2.927067995071411,
                -2.9357967376708984,
                -3.3466320037841797
            ],
            "type" : "VEC3"
        },
        {
            "bufferView" : 9,
            "componentType" : 5126,
            "count" : 507904,
            "max" : [
                1.761590600013733,
                1.9973969459533691,
                1.84017014503479
            ],
            "min" : [
                -1.9743540287017822,
                -1.9869463443756104,
                -1.7699613571166992
            ],
            "type" : "VEC3"
        },
        {
            "bufferView" : 10,
            "componentType" : 5126,
            "count" : 507904,
            "max" : [
                0.9999334216117859,
                0.9999929070472717,
                0.9999997019767761
            ],
            "min" : [
                -0.9999539852142334,
                -0.9999788999557495,
                -0.9999895691871643
            ],
            "type" : "VEC3"
        },
        {
            "bufferView" : 11,
            "componentType" : 5126,
            "count" : 3,
            "max" : [
                0.4166666666666667
            ],
            "min" : [
                0.0
            ],
            "type" : "SCALAR"
        },
        {
            "bufferView" : 12,
            "componentType" : 5126,
            "count" : 18,
            "max" : [
                1.6666667461395264
            ],
            "min" : [
                0.0
            ],
            "type" : "SCALAR"
        }
    ],
    "animations" : [
        {
            "channels" : [
                {
                    "sampler" : 0,
                    "target" : {
                        "node" : 0,
                        "path" : "weights"
                    }
                }
            ],
            "name" : "PollenBurst",
            "samplers" : [
                {
                    "input" : 11,
                    "interpolation" : "CUBICSPLINE",
                    "output" : 12
                }
            ]
        }
    ],
    "asset" : {
        "generator" : "Khronos Blender glTF 2.0 exporter",
        "version" : "2.0"
    },
    "bufferViews" : [
        {
            "buffer" : 0,
            "byteLength" : 3047424,
            "byteOffset" : 0,
            "target" : 34963
        },
        {
            "buffer" : 0,
            "byteLength" : 6094848,
            "byteOffset" : 3047424,
            "target" : 34962
        },
        {
            "buffer" : 0,
            "byteLength" : 6094848,
            "byteOffset" : 9142272,
            "target" : 34962
        },
        {
            "buffer" : 0,
            "byteLength" : 8126464,
            "byteOffset" : 15237120,
            "target" : 34962
        },
        {
            "buffer" : 0,
            "byteLength" : 4063232,
            "byteOffset" : 23363584,
            "target" : 34962
        },
        {
            "buffer" : 0,
            "byteLength" : 6094848,
            "byteOffset" : 27426816
        },
        {
            "buffer" : 0,
            "byteLength" : 6094848,
            "byteOffset" : 33521664
        },
        {
            "buffer" : 0,
            "byteLength" : 6094848,
            "byteOffset" : 39616512
        },
        {
            "buffer" : 0,
            "byteLength" : 6094848,
            "byteOffset" : 45711360
        },
        {
            "buffer" : 0,
            "byteLength" : 6094848,
            "byteOffset" : 51806208
        },
        {
            "buffer" : 0,
            "byteLength" : 6094848,
            "byteOffset" : 57901056
        },
        {
            "buffer" : 0,
            "byteLength" : 12,
            "byteOffset" : 63995904
        },
        {
            "buffer" : 0,
            "byteLength" : 72,
            "byteOffset" : 63995916
        }
    ],
    "buffers" : [
        {
            "byteLength" : 63995988,
            "uri" : "Debris02.bin"
        }
    ],
    "materials" : [
        {
            "name" : "Material.001",
            "pbrMetallicRoughness" : {
                "baseColorFactor" : [
                    0.015208512544631958,
                    1.0,
                    0.20507875084877014,
                    1.0
                ],
                "metallicFactor" : 0.0,
                "roughnessFactor" : 0.3636363744735718
            }
        }
    ],
    "meshes" : [
        {
            "extras" : {
                "targetNames" : [
                    "Pollen",
                    "Sink"
                ]
            },
            "name" : "Sphere.000",
            "primitives" : [
                {
                    "attributes" : {
                        "NORMAL" : 2,
                        "POSITION" : 1,
                        "TANGENT" : 3,
                        "TEXCOORD_0" : 4
                    },
                    "indices" : 0,
                    "material" : 0,
                    "targets" : [
                        {
                            "NORMAL" : 6,
                            "POSITION" : 5,
                            "TANGENT" : 7
                        },
                        {
                            "NORMAL" : 9,
                            "POSITION" : 8,
                            "TANGENT" : 10
                        }
                    ]
                }
            ],
            "weights" : [
                0.0,
                0.0
            ]
        }
    ],
    "nodes" : [
        {
            "mesh" : 0,
            "name" : "Sphere.000",
            "rotation" : [
                -0.5858995318412781,
                -0.3836069405078888,
                0.7137528657913208,
                0.011143552139401436
            ],
            "scale" : [
                0.12569627165794373,
                0.12569627165794373,
                0.12569627165794373
            ],
            "translation" : [
                0.031433820724487305,
                0.0,
                -0.0
            ]
        }
    ],
    "scene" : 0,
    "scenes" : [
        {
            "name" : "Scene",
            "nodes" : [
                0
            ]
        }
    ]
}
