{
    "accessors" : [
        {
            "bufferView" : 0,
            "componentType" : 5123,
            "count" : 78336,
            "max" : [
                52415
            ],
            "min" : [
                0
            ],
            "type" : "SCALAR"
        },
        {
            "bufferView" : 1,
            "componentType" : 5126,
            "count" : 52416,
            "max" : [
                1.7215818166732788,
                1.8128082752227783,
                4.0055108070373535
            ],
            "min" : [
                -1.718843698501587,
                -1.718843698501587,
                -3.716198444366455
            ],
            "type" : "VEC3"
        },
        {
            "bufferView" : 2,
            "componentType" : 5126,
            "count" : 52416,
            "max" : [
                0.999621570110321,
                0.999621570110321,
                0.999621570110321
            ],
            "min" : [
                -0.999621570110321,
                -0.999621570110321,
                -0.999621570110321
            ],
            "type" : "VEC3"
        },
        {
            "bufferView" : 3,
            "componentType" : 5126,
            "count" : 52416,
            "max" : [
                0.9990623593330383,
                0.9934483766555786,
                0.9989300966262817,
                1.0
            ],
            "min" : [
                -0.9998952150344849,
                -0.9951990842819214,
                -0.9882993698120117,
                1.0
            ],
            "type" : "VEC4"
        },
        {
            "bufferView" : 4,
            "componentType" : 5126,
            "count" : 52416,
            "max" : [
                1.0,
                1.0
            ],
            "min" : [
                0.0,
                5.960464477539063e-08
            ],
            "type" : "VEC2"
        },
        {
            "bufferView" : 5,
            "componentType" : 5126,
            "count" : 52416,
            "max" : [
                1.1771903038024902,
                0.7011579275131226,
                0.5646675825119019
            ],
            "min" : [
                -0.5361030101776123,
                -0.8366081714630127,
                -0.98162841796875
            ],
            "type" : "VEC3"
        },
        {
            "bufferView" : 6,
            "componentType" : 5126,
            "count" : 52416,
            "max" : [
                0.8867413997650146,
                0.48372843861579895,
                0.8153262734413147
            ],
            "min" : [
                -0.3756735920906067,
                -0.9743005037307739,
                -0.7137009501457214
            ],
            "type" : "VEC3"
        },
        {
            "bufferView" : 7,
            "componentType" : 5126,
            "count" : 52416,
            "max" : [
                0.9999971985816956,
                0.9999482035636902,
                0.999713659286499
            ],
            "min" : [
                -0.99974524974823,
                -0.9999293088912964,
                -0.9995272755622864
            ],
            "type" : "VEC3"
        },
        {
            "bufferView" : 8,
            "componentType" : 5126,
            "count" : 52416,
            "max" : [
                1.0856417417526245,
                1.0306894779205322,
                3.508755683898926
            ],
            "min" : [
                -1.772686243057251,
                -0.735501766204834,
                -4.137155055999756
            ],
            "type" : "VEC3"
        },
        {
            "bufferView" : 9,
            "componentType" : 5126,
            "count" : 52416,
            "max" : [
                0.7990710735321045,
                0.7180145382881165,
                0.6880182027816772
            ],
            "min" : [
                -0.7630912065505981,
                -0.923896074295044,
                -0.6263396739959717
            ],
            "type" : "VEC3"
        },
        {
            "bufferView" : 10,
            "componentType" : 5126,
            "count" : 52416,
            "max" : [
                0.9999927878379822,
                0.9998164176940918,
                0.9997048377990723
            ],
            "min" : [
                -0.999913215637207,
                -0.9998894929885864,
                -0.9998711347579956
            ],
            "type" : "VEC3"
        },
        {
            "bufferView" : 11,
            "componentType" : 5126,
            "count" : 52416,
            "max" : [
                1.1920928955078125e-07,
                0.09396213293075562,
                6.9571533203125
            ],
            "min" : [
                -0.8804279565811157,
                -0.3771289587020874,
                0.0
            ],
            "type" : "VEC3"
        },
        {
            "bufferView" : 12,
            "componentType" : 5126,
            "count" : 52416,
            "max" : [
                1.849234104156494e-05,
                1.6182661056518555e-05,
                9.357929229736328e-06
            ],
            "min" : [
                -1.8717721104621887e-05,
                -1.6316771507263184e-05,
                -8.940696716308594e-06
            ],
            "type" : "VEC3"
        },
        {
            "bufferView" : 13,
            "componentType" : 5126,
            "count" : 52416,
            "max" : [
                0.9998601675033569,
                0.9999443292617798,
                0.9998463988304138
            ],
            "min" : [
                -0.9999809861183167,
                -0.999497652053833,
                -0.999978244304657
            ],
            "type" : "VEC3"
        },
        {
            "bufferView" : 14,
            "componentType" : 5126,
            "count" : 52416,
            "max" : [
                0.08286464214324951,
                0.0,
                0.0
            ],
            "min" : [
                -0.08286437392234802,
                -0.6941698789596558,
                -7.554932594299316
            ],
            "type" : "VEC3"
        },
        {
            "bufferView" : 15,
            "componentType" : 5126,
            "count" : 52416,
            "max" : [
                3.954395651817322e-05,
                1.4603137969970703e-05,
                1.2099742889404297e-05
            ],
            "min" : [
                -2.779066562652588e-05,
                -1.4543533325195312e-05,
                -9.179115295410156e-06
            ],
            "type" : "VEC3"
        },
        {
            "bufferView" : 16,
            "componentType" : 5126,
            "count" : 52416,
            "max" : [
                0.9998968243598938,
                0.9999443292617798,
                0.999968945980072
            ],
            "min" : [
                -0.9999809861183167,
                -0.999497652053833,
                -0.999978244304657
            ],
            "type" : "VEC3"
        },
        {
            "bufferView" : 17,
            "componentType" : 5126,
            "count" : 52416,
            "max" : [
                0.33155548572540283,
                0.31018418073654175,
                0.1450810432434082
            ],
            "min" : [
                -0.30341750383377075,
                -0.34268510341644287,
                -1.02830171585083
            ],
            "type" : "VEC3"
        },
        {
            "bufferView" : 18,
            "componentType" : 5126,
            "count" : 52416,
            "max" : [
                1.0845727920532227,
                1.027332067489624,
                1.0322613716125488
            ],
            "min" : [
                -1.0835652351379395,
                -1.0500011444091797,
                -1.0524827241897583
            ],
            "type" : "VEC3"
        },
        {
            "bufferView" : 19,
            "componentType" : 5126,
            "count" : 52416,
            "max" : [
                0.9996038675308228,
                0.999983012676239,
                0.9997168779373169
            ],
            "min" : [
                -0.9997357130050659,
                -0.9999502301216125,
                -0.9998387098312378
            ],
            "type" : "VEC3"
        },
        {
            "bufferView" : 20,
            "componentType" : 5126,
            "count" : 52416,
            "max" : [
                0.2999999523162842,
                0.2997252941131592,
                0.2999999523162842
            ],
            "min" : [
                -0.30000001192092896,
                -0.2999999523162842,
                -0.8945150375366211
            ],
            "type" : "VEC3"
        },
        {
            "bufferView" : 21,
            "componentType" : 5126,
            "count" : 52416,
            "max" : [
                1.4489057064056396,
                1.3920531272888184,
                1.349172592163086
            ],
            "min" : [
                -1.3798549175262451,
                -1.4381537437438965,
                -1.5739275217056274
            ],
            "type" : "VEC3"
        },
        {
            "bufferView" : 22,
            "componentType" : 5126,
            "count" : 52416,
            "max" : [
                0.999764084815979,
                0.9995386004447937,
                0.999754011631012
            ],
            "min" : [
                -0.9999275207519531,
                -0.9997703433036804,
                -0.9998012185096741
            ],
            "type" : "VEC3"
        },
        {
            "bufferView" : 23,
            "componentType" : 5126,
            "count" : 52416,
            "max" : [
                3.3187410831451416,
                2.5494306087493896,
                3.346898078918457
            ],
            "min" : [
                -2.053529739379883,
                -2.638331651687622,
                -4.552352428436279
            ],
            "type" : "VEC3"
        },
        {
            "bufferView" : 24,
            "componentType" : 5126,
            "count" : 52416,
            "max" : [
                1.7419283390045166,
                1.1626887321472168,
                1.4189133644104004
            ],
            "min" : [
                -1.4126631021499634,
                -1.2404305934906006,
                -1.1846365928649902
            ],
            "type" : "VEC3"
        },
        {
            "bufferView" : 25,
            "componentType" : 5126,
            "count" : 52416,
            "max" : [
                0.9997102618217468,
                0.9999676942825317,
                0.9999963045120239
            ],
            "min" : [
                -0.9997254610061646,
                -0.9983102083206177,
                -0.9999454021453857
            ],
            "type" : "VEC3"
        },
        {
            "bufferView" : 26,
            "componentType" : 5126,
            "count" : 21,
            "max" : [
                0.8333333333333334
            ],
            "min" : [
                0.0
            ],
            "type" : "SCALAR"
        },
        {
            "bufferView" : 27,
            "componentType" : 5126,
            "count" : 147,
            "max" : [
                0.5777778029441833
            ],
            "min" : [
                0.0
            ],
            "type" : "SCALAR"
        },
        {
            "bufferView" : 28,
            "componentType" : 5126,
            "count" : 21,
            "max" : [
                0.8333333333333334
            ],
            "min" : [
                0.0
            ],
            "type" : "SCALAR"
        },
        {
            "bufferView" : 29,
            "componentType" : 5126,
            "count" : 147,
            "max" : [
                0.7916666269302368
            ],
            "min" : [
                0.0
            ],
            "type" : "SCALAR"
        },
        {
            "bufferView" : 30,
            "componentType" : 5126,
            "count" : 21,
            "max" : [
                0.8333333333333334
            ],
            "min" : [
                0.0
            ],
            "type" : "SCALAR"
        },
        {
            "bufferView" : 31,
            "componentType" : 5126,
            "count" : 147,
            "max" : [
                1.0
            ],
            "min" : [
                0.0
            ],
            "type" : "SCALAR"
        },
        {
            "bufferView" : 32,
            "componentType" : 5126,
            "count" : 21,
            "max" : [
                0.8333333333333334
            ],
            "min" : [
                0.0
            ],
            "type" : "SCALAR"
        },
        {
            "bufferView" : 33,
            "componentType" : 5126,
            "count" : 147,
            "max" : [
                1.0
            ],
            "min" : [
                0.0
            ],
            "type" : "SCALAR"
        }
    ],
    "animations" : [
        {
            "channels" : [
                {
                    "sampler" : 0,
                    "target" : {
                        "node" : 1,
                        "path" : "weights"
                    }
                }
            ],
            "name" : "Shoot",
            "samplers" : [
                {
                    "input" : 30,
                    "interpolation" : "LINEAR",
                    "output" : 31
                }
            ]
        },
        {
            "channels" : [
                {
                    "sampler" : 0,
                    "target" : {
                        "node" : 1,
                        "path" : "weights"
                    }
                }
            ],
            "name" : "Idle",
            "samplers" : [
                {
                    "input" : 26,
                    "interpolation" : "LINEAR",
                    "output" : 27
                }
            ]
        },
        {
            "channels" : [
                {
                    "sampler" : 0,
                    "target" : {
                        "node" : 1,
                        "path" : "weights"
                    }
                }
            ],
            "name" : "Idle 02",
            "samplers" : [
                {
                    "input" : 32,
                    "interpolation" : "LINEAR",
                    "output" : 33
                }
            ]
        },
        {
            "channels" : [
                {
                    "sampler" : 0,
                    "target" : {
                        "node" : 1,
                        "path" : "weights"
                    }
                }
            ],
            "name" : "Power Up",
            "samplers" : [
                {
                    "input" : 28,
                    "interpolation" : "LINEAR",
                    "output" : 29
                }
            ]
        }
    ],
    "asset" : {
        "generator" : "Khronos Blender glTF 2.0 exporter",
        "version" : "2.0"
    },
    "bufferViews" : [
        {
            "buffer" : 0,
            "byteLength" : 156672,
            "byteOffset" : 0,
            "target" : 34963
        },
        {
            "buffer" : 0,
            "byteLength" : 628992,
            "byteOffset" : 156672,
            "target" : 34962
        },
        {
            "buffer" : 0,
            "byteLength" : 628992,
            "byteOffset" : 785664,
            "target" : 34962
        },
        {
            "buffer" : 0,
            "byteLength" : 838656,
            "byteOffset" : 1414656,
            "target" : 34962
        },
        {
            "buffer" : 0,
            "byteLength" : 419328,
            "byteOffset" : 2253312,
            "target" : 34962
        },
        {
            "buffer" : 0,
            "byteLength" : 628992,
            "byteOffset" : 2672640
        },
        {
            "buffer" : 0,
            "byteLength" : 628992,
            "byteOffset" : 3301632
        },
        {
            "buffer" : 0,
            "byteLength" : 628992,
            "byteOffset" : 3930624
        },
        {
            "buffer" : 0,
            "byteLength" : 628992,
            "byteOffset" : 4559616
        },
        {
            "buffer" : 0,
            "byteLength" : 628992,
            "byteOffset" : 5188608
        },
        {
            "buffer" : 0,
            "byteLength" : 628992,
            "byteOffset" : 5817600
        },
        {
            "buffer" : 0,
            "byteLength" : 628992,
            "byteOffset" : 6446592
        },
        {
            "buffer" : 0,
            "byteLength" : 628992,
            "byteOffset" : 7075584
        },
        {
            "buffer" : 0,
            "byteLength" : 628992,
            "byteOffset" : 7704576
        },
        {
            "buffer" : 0,
            "byteLength" : 628992,
            "byteOffset" : 8333568
        },
        {
            "buffer" : 0,
            "byteLength" : 628992,
            "byteOffset" : 8962560
        },
        {
            "buffer" : 0,
            "byteLength" : 628992,
            "byteOffset" : 9591552
        },
        {
            "buffer" : 0,
            "byteLength" : 628992,
            "byteOffset" : 10220544
        },
        {
            "buffer" : 0,
            "byteLength" : 628992,
            "byteOffset" : 10849536
        },
        {
            "buffer" : 0,
            "byteLength" : 628992,
            "byteOffset" : 11478528
        },
        {
            "buffer" : 0,
            "byteLength" : 628992,
            "byteOffset" : 12107520
        },
        {
            "buffer" : 0,
            "byteLength" : 628992,
            "byteOffset" : 12736512
        },
        {
            "buffer" : 0,
            "byteLength" : 628992,
            "byteOffset" : 13365504
        },
        {
            "buffer" : 0,
            "byteLength" : 628992,
            "byteOffset" : 13994496
        },
        {
            "buffer" : 0,
            "byteLength" : 628992,
            "byteOffset" : 14623488
        },
        {
            "buffer" : 0,
            "byteLength" : 628992,
            "byteOffset" : 15252480
        },
        {
            "buffer" : 0,
            "byteLength" : 84,
            "byteOffset" : 15881472
        },
        {
            "buffer" : 0,
            "byteLength" : 588,
            "byteOffset" : 15881556
        },
        {
            "buffer" : 0,
            "byteLength" : 84,
            "byteOffset" : 15882144
        },
        {
            "buffer" : 0,
            "byteLength" : 588,
            "byteOffset" : 15882228
        },
        {
            "buffer" : 0,
            "byteLength" : 84,
            "byteOffset" : 15882816
        },
        {
            "buffer" : 0,
            "byteLength" : 588,
            "byteOffset" : 15882900
        },
        {
            "buffer" : 0,
            "byteLength" : 84,
            "byteOffset" : 15883488
        },
        {
            "buffer" : 0,
            "byteLength" : 588,
            "byteOffset" : 15883572
        }
    ],
    "buffers" : [
        {
            "byteLength" : 15884160,
            "uri" : "Mode-02.bin"
        }
    ],
    "images" : [
        {
            "name" : "blue",
            "uri" : "blue.png"
        },
        {
            "name" : "Normals-01",
            "uri" : "Normals-01.png"
        }
    ],
    "materials" : [
        {
            "name" : "Blue.001",
            "normalTexture" : {
                "index" : 1
            },
            "pbrMetallicRoughness" : {
                "baseColorTexture" : {
                    "index" : 0
                },
                "metallicFactor" : 0.0
            }
        }
    ],
    "meshes" : [
        {
            "extras" : {
                "targetNames" : [
                    "Distort 01",
                    "Distort 02",
                    "Left",
                    "Right",
                    "Explode 01",
                    "Explode 02",
                    "Explode 03"
                ]
            },
            "name" : "Cube.003",
            "primitives" : [
                {
                    "attributes" : {
                        "NORMAL" : 2,
                        "POSITION" : 1,
                        "TANGENT" : 3,
                        "TEXCOORD_0" : 4
                    },
                    "indices" : 0,
                    "material" : 0,
                    "targets" : [
                        {
                            "NORMAL" : 6,
                            "POSITION" : 5,
                            "TANGENT" : 7
                        },
                        {
                            "NORMAL" : 9,
                            "POSITION" : 8,
                            "TANGENT" : 10
                        },
                        {
                            "NORMAL" : 12,
                            "POSITION" : 11,
                            "TANGENT" : 13
                        },
                        {
                            "NORMAL" : 15,
                            "POSITION" : 14,
                            "TANGENT" : 16
                        },
                        {
                            "NORMAL" : 18,
                            "POSITION" : 17,
                            "TANGENT" : 19
                        },
                        {
                            "NORMAL" : 21,
                            "POSITION" : 20,
                            "TANGENT" : 22
                        },
                        {
                            "NORMAL" : 24,
                            "POSITION" : 23,
                            "TANGENT" : 25
                        }
                    ]
                }
            ],
            "weights" : [
                0.30000001192092896,
                0.699999988079071,
                0.0,
                0.0,
                0.0,
                0.0,
                0.0
            ]
        }
    ],
    "nodes" : [
        {
            "name" : "Camera",
            "rotation" : [
                0.483536034822464,
                0.33687159419059753,
                -0.20870360732078552,
                0.7804827094078064
            ],
            "translation" : [
                7.481131553649902,
                5.34366512298584,
                6.5076398849487305
            ]
        },
        {
            "mesh" : 0,
            "name" : "Organism",
            "rotation" : [
                0.0,
                0.7071068286895752,
                -0.0,
                0.7071067690849304
            ]
        }
    ],
    "samplers" : [
        {}
    ],
    "scene" : 0,
    "scenes" : [
        {
            "name" : "Scene",
            "nodes" : [
                0,
                1
            ]
        }
    ],
    "textures" : [
        {
            "sampler" : 0,
            "source" : 0
        },
        {
            "sampler" : 0,
            "source" : 1
        }
    ]
}
