{
    "accessors" : [
        {
            "bufferView" : 0,
            "componentType" : 5125,
            "count" : 147456,
            "max" : [
                98303
            ],
            "min" : [
                0
            ],
            "type" : "SCALAR"
        },
        {
            "bufferView" : 1,
            "componentType" : 5126,
            "count" : 98304,
            "max" : [
                1.6022077798843384,
                1.9667010307312012,
                1.4869951009750366
            ],
            "min" : [
                -1.6126821041107178,
                -1.7397515773773193,
                -1.49784517288208
            ],
            "type" : "VEC3"
        },
        {
            "bufferView" : 2,
            "componentType" : 5126,
            "count" : 98304,
            "max" : [
                0.9998878240585327,
                0.999897837638855,
                0.9999563694000244
            ],
            "min" : [
                -0.9998622536659241,
                -0.9999643564224243,
                -0.9999666213989258
            ],
            "type" : "VEC3"
        },
        {
            "bufferView" : 3,
            "componentType" : 5126,
            "count" : 98304,
            "max" : [
                0.9999942779541016,
                0.938739538192749,
                0.9999716877937317,
                1.0
            ],
            "min" : [
                -0.9998791813850403,
                -0.8265794515609741,
                -0.9999493360519409,
                1.0
            ],
            "type" : "VEC4"
        },
        {
            "bufferView" : 4,
            "componentType" : 5126,
            "count" : 98304,
            "max" : [
                0.9998964667320251,
                0.9998965122067602
            ],
            "min" : [
                0.00010348779323976487,
                0.412725567817688
            ],
            "type" : "VEC2"
        },
        {
            "bufferView" : 5,
            "componentType" : 5126,
            "count" : 98304,
            "max" : [
                2.11076021194458,
                2.0625641345977783,
                1.2257862091064453
            ],
            "min" : [
                -2.4482624530792236,
                -1.7585684061050415,
                -1.3128947019577026
            ],
            "type" : "VEC3"
        },
        {
            "bufferView" : 6,
            "componentType" : 5126,
            "count" : 98304,
            "max" : [
                1.3273484706878662,
                1.688869833946228,
                1.3812780380249023
            ],
            "min" : [
                -1.4128193855285645,
                -1.4266819953918457,
                -1.982292890548706
            ],
            "type" : "VEC3"
        },
        {
            "bufferView" : 7,
            "componentType" : 5126,
            "count" : 98304,
            "max" : [
                0.9998579025268555,
                0.9999968409538269,
                0.9999184012413025
            ],
            "min" : [
                -0.9999662041664124,
                -0.9998895525932312,
                -0.9999676942825317
            ],
            "type" : "VEC3"
        },
        {
            "bufferView" : 8,
            "componentType" : 5126,
            "count" : 98304,
            "max" : [
                2.8650472164154053,
                3.105583906173706,
                2.7109580039978027
            ],
            "min" : [
                -3.2908453941345215,
                -2.852369785308838,
                -2.9402780532836914
            ],
            "type" : "VEC3"
        },
        {
            "bufferView" : 9,
            "componentType" : 5126,
            "count" : 98304,
            "max" : [
                1.8908679485321045,
                1.7695075273513794,
                1.9542720317840576
            ],
            "min" : [
                -1.7991588115692139,
                -1.9280707836151123,
                -1.8972530364990234
            ],
            "type" : "VEC3"
        },
        {
            "bufferView" : 10,
            "componentType" : 5126,
            "count" : 98304,
            "max" : [
                0.9998430013656616,
                0.9999483227729797,
                0.9999789595603943
            ],
            "min" : [
                -0.9999688863754272,
                -0.9997431039810181,
                -0.9999678730964661
            ],
            "type" : "VEC3"
        },
        {
            "bufferView" : 11,
            "componentType" : 5126,
            "count" : 11,
            "max" : [
                0.4166666666666667
            ],
            "min" : [
                0.0
            ],
            "type" : "SCALAR"
        },
        {
            "bufferView" : 12,
            "componentType" : 5126,
            "count" : 22,
            "max" : [
                1.0
            ],
            "min" : [
                0.0
            ],
            "type" : "SCALAR"
        }
    ],
    "animations" : [
        {
            "channels" : [
                {
                    "sampler" : 0,
                    "target" : {
                        "node" : 0,
                        "path" : "weights"
                    }
                }
            ],
            "name" : "FlowerBurst",
            "samplers" : [
                {
                    "input" : 11,
                    "interpolation" : "LINEAR",
                    "output" : 12
                }
            ]
        }
    ],
    "asset" : {
        "generator" : "Khronos Blender glTF 2.0 exporter",
        "version" : "2.0"
    },
    "bufferViews" : [
        {
            "buffer" : 0,
            "byteLength" : 589824,
            "byteOffset" : 0,
            "target" : 34963
        },
        {
            "buffer" : 0,
            "byteLength" : 1179648,
            "byteOffset" : 589824,
            "target" : 34962
        },
        {
            "buffer" : 0,
            "byteLength" : 1179648,
            "byteOffset" : 1769472,
            "target" : 34962
        },
        {
            "buffer" : 0,
            "byteLength" : 1572864,
            "byteOffset" : 2949120,
            "target" : 34962
        },
        {
            "buffer" : 0,
            "byteLength" : 786432,
            "byteOffset" : 4521984,
            "target" : 34962
        },
        {
            "buffer" : 0,
            "byteLength" : 1179648,
            "byteOffset" : 5308416
        },
        {
            "buffer" : 0,
            "byteLength" : 1179648,
            "byteOffset" : 6488064
        },
        {
            "buffer" : 0,
            "byteLength" : 1179648,
            "byteOffset" : 7667712
        },
        {
            "buffer" : 0,
            "byteLength" : 1179648,
            "byteOffset" : 8847360
        },
        {
            "buffer" : 0,
            "byteLength" : 1179648,
            "byteOffset" : 10027008
        },
        {
            "buffer" : 0,
            "byteLength" : 1179648,
            "byteOffset" : 11206656
        },
        {
            "buffer" : 0,
            "byteLength" : 44,
            "byteOffset" : 12386304
        },
        {
            "buffer" : 0,
            "byteLength" : 88,
            "byteOffset" : 12386348
        }
    ],
    "buffers" : [
        {
            "byteLength" : 12386436,
            "uri" : "Debris01.bin"
        }
    ],
    "materials" : [
        {
            "name" : "Material",
            "pbrMetallicRoughness" : {
                "baseColorFactor" : [
                    0.799102783203125,
                    0.2704978287220001,
                    0.7758224010467529,
                    1.0
                ],
                "metallicFactor" : 0.0,
                "roughnessFactor" : 0.44545453786849976
            }
        }
    ],
    "meshes" : [
        {
            "extras" : {
                "targetNames" : [
                    "Explode",
                    "Flower"
                ]
            },
            "name" : "Cube.000",
            "primitives" : [
                {
                    "attributes" : {
                        "NORMAL" : 2,
                        "POSITION" : 1,
                        "TANGENT" : 3,
                        "TEXCOORD_0" : 4
                    },
                    "indices" : 0,
                    "material" : 0,
                    "targets" : [
                        {
                            "NORMAL" : 6,
                            "POSITION" : 5,
                            "TANGENT" : 7
                        },
                        {
                            "NORMAL" : 9,
                            "POSITION" : 8,
                            "TANGENT" : 10
                        }
                    ]
                }
            ],
            "weights" : [
                0.0,
                0.0
            ]
        }
    ],
    "nodes" : [
        {
            "mesh" : 0,
            "name" : "Cube.001",
            "rotation" : [
                0.3308459520339966,
                -0.5524210929870605,
                0.3931082785129547,
                0.6563823819160461
            ],
            "scale" : [
                0.20674766600131989,
                0.2274836152791977,
                0.23087738454341888
            ],
            "translation" : [
                1.624687910079956,
                0.0,
                -0.0
            ]
        }
    ],
    "scene" : 0,
    "scenes" : [
        {
            "name" : "Scene",
            "nodes" : [
                0
            ]
        }
    ]
}
