{
    "accessors" : [
        {
            "bufferView" : 0,
            "componentType" : 5125,
            "count" : 518400,
            "max" : [
                345599
            ],
            "min" : [
                0
            ],
            "type" : "SCALAR"
        },
        {
            "bufferView" : 1,
            "componentType" : 5126,
            "count" : 345600,
            "max" : [
                2.6676888465881348,
                1.704424500465393,
                1.7271745204925537
            ],
            "min" : [
                -2.4926180839538574,
                -1.6822744607925415,
                -1.716460943222046
            ],
            "type" : "VEC3"
        },
        {
            "bufferView" : 2,
            "componentType" : 5126,
            "count" : 345600,
            "max" : [
                0.9998779296875,
                0.999969482421875,
                0.999969482421875
            ],
            "min" : [
                -0.9998779296875,
                -0.99969482421875,
                -0.999969482421875
            ],
            "type" : "VEC3"
        },
        {
            "bufferView" : 3,
            "componentType" : 5126,
            "count" : 345600,
            "max" : [
                0.9999995231628418,
                1.0,
                0.9999997615814209,
                1.0
            ],
            "min" : [
                -0.9999990463256836,
                -0.9999991655349731,
                -0.9999996423721313,
                1.0
            ],
            "type" : "VEC4"
        },
        {
            "bufferView" : 4,
            "componentType" : 5126,
            "count" : 345600,
            "max" : [
                1.0,
                1.0
            ],
            "min" : [
                0.0,
                0.0
            ],
            "type" : "VEC2"
        },
        {
            "bufferView" : 5,
            "componentType" : 5126,
            "count" : 345600,
            "max" : [
                0.7443076372146606,
                0.7653796672821045,
                0.9012770652770996
            ],
            "min" : [
                -1.2154582738876343,
                -0.9366939067840576,
                -0.6316028237342834
            ],
            "type" : "VEC3"
        },
        {
            "bufferView" : 6,
            "componentType" : 5126,
            "count" : 345600,
            "max" : [
                1.6289430856704712,
                1.633302927017212,
                1.0813074111938477
            ],
            "min" : [
                -1.2349681854248047,
                -1.3090589046478271,
                -1.3332126140594482
            ],
            "type" : "VEC3"
        },
        {
            "bufferView" : 7,
            "componentType" : 5126,
            "count" : 345600,
            "max" : [
                0.9999880790710449,
                0.9999953508377075,
                0.9999915361404419
            ],
            "min" : [
                -0.9999983310699463,
                -0.9999985694885254,
                -0.9999915361404419
            ],
            "type" : "VEC3"
        },
        {
            "bufferView" : 8,
            "componentType" : 5126,
            "count" : 345600,
            "max" : [
                0.9127039313316345,
                0.39581727981567383,
                0.6470145583152771
            ],
            "min" : [
                -1.191509485244751,
                -0.6641255617141724,
                -0.4120666980743408
            ],
            "type" : "VEC3"
        },
        {
            "bufferView" : 9,
            "componentType" : 5126,
            "count" : 345600,
            "max" : [
                1.5928122997283936,
                1.4396414756774902,
                1.3280527591705322
            ],
            "min" : [
                -1.3672339916229248,
                -1.3745182752609253,
                -1.5318877696990967
            ],
            "type" : "VEC3"
        },
        {
            "bufferView" : 10,
            "componentType" : 5126,
            "count" : 345600,
            "max" : [
                1.0000001192092896,
                0.9999997019767761,
                0.9999828934669495
            ],
            "min" : [
                -0.9999950528144836,
                -0.9999580979347229,
                -0.9999948740005493
            ],
            "type" : "VEC3"
        },
        {
            "bufferView" : 11,
            "componentType" : 5126,
            "count" : 345600,
            "max" : [
                0.8093581199645996,
                0.551063060760498,
                0.6600470542907715
            ],
            "min" : [
                -1.3334978818893433,
                -0.7834317684173584,
                -0.42581868171691895
            ],
            "type" : "VEC3"
        },
        {
            "bufferView" : 12,
            "componentType" : 5126,
            "count" : 345600,
            "max" : [
                1.4215905666351318,
                1.4408535957336426,
                1.4662830829620361
            ],
            "min" : [
                -1.3797733783721924,
                -1.1414432525634766,
                -1.1938934326171875
            ],
            "type" : "VEC3"
        },
        {
            "bufferView" : 13,
            "componentType" : 5126,
            "count" : 345600,
            "max" : [
                0.9999939203262329,
                0.9999942183494568,
                0.9999892711639404
            ],
            "min" : [
                -0.9999799728393555,
                -0.9999901652336121,
                -0.9999891519546509
            ],
            "type" : "VEC3"
        },
        {
            "bufferView" : 14,
            "componentType" : 5126,
            "count" : 21,
            "max" : [
                0.8333333333333334
            ],
            "min" : [
                0.0
            ],
            "type" : "SCALAR"
        },
        {
            "bufferView" : 15,
            "componentType" : 5126,
            "count" : 63,
            "max" : [
                1.0
            ],
            "min" : [
                0.0
            ],
            "type" : "SCALAR"
        }
    ],
    "animations" : [
        {
            "channels" : [
                {
                    "sampler" : 0,
                    "target" : {
                        "node" : 0,
                        "path" : "weights"
                    }
                }
            ],
            "name" : "Bloom",
            "samplers" : [
                {
                    "input" : 14,
                    "interpolation" : "LINEAR",
                    "output" : 15
                }
            ]
        }
    ],
    "asset" : {
        "generator" : "Khronos Blender glTF 2.0 exporter",
        "version" : "2.0"
    },
    "bufferViews" : [
        {
            "buffer" : 0,
            "byteLength" : 2073600,
            "byteOffset" : 0,
            "target" : 34963
        },
        {
            "buffer" : 0,
            "byteLength" : 4147200,
            "byteOffset" : 2073600,
            "target" : 34962
        },
        {
            "buffer" : 0,
            "byteLength" : 4147200,
            "byteOffset" : 6220800,
            "target" : 34962
        },
        {
            "buffer" : 0,
            "byteLength" : 5529600,
            "byteOffset" : 10368000,
            "target" : 34962
        },
        {
            "buffer" : 0,
            "byteLength" : 2764800,
            "byteOffset" : 15897600,
            "target" : 34962
        },
        {
            "buffer" : 0,
            "byteLength" : 4147200,
            "byteOffset" : 18662400
        },
        {
            "buffer" : 0,
            "byteLength" : 4147200,
            "byteOffset" : 22809600
        },
        {
            "buffer" : 0,
            "byteLength" : 4147200,
            "byteOffset" : 26956800
        },
        {
            "buffer" : 0,
            "byteLength" : 4147200,
            "byteOffset" : 31104000
        },
        {
            "buffer" : 0,
            "byteLength" : 4147200,
            "byteOffset" : 35251200
        },
        {
            "buffer" : 0,
            "byteLength" : 4147200,
            "byteOffset" : 39398400
        },
        {
            "buffer" : 0,
            "byteLength" : 4147200,
            "byteOffset" : 43545600
        },
        {
            "buffer" : 0,
            "byteLength" : 4147200,
            "byteOffset" : 47692800
        },
        {
            "buffer" : 0,
            "byteLength" : 4147200,
            "byteOffset" : 51840000
        },
        {
            "buffer" : 0,
            "byteLength" : 84,
            "byteOffset" : 55987200
        },
        {
            "buffer" : 0,
            "byteLength" : 252,
            "byteOffset" : 55987284
        }
    ],
    "buffers" : [
        {
            "byteLength" : 55987536,
            "uri" : "Debris03.bin"
        }
    ],
    "materials" : [
        {
            "name" : "Material.004",
            "pbrMetallicRoughness" : {
                "metallicFactor" : 0.0,
                "roughnessFactor" : 0.6636770963668823
            }
        }
    ],
    "meshes" : [
        {
            "extras" : {
                "targetNames" : [
                    "Bloom 01",
                    "Bloom 02",
                    "Bloom 03"
                ]
            },
            "name" : "Cube",
            "primitives" : [
                {
                    "attributes" : {
                        "NORMAL" : 2,
                        "POSITION" : 1,
                        "TANGENT" : 3,
                        "TEXCOORD_0" : 4
                    },
                    "indices" : 0,
                    "material" : 0,
                    "targets" : [
                        {
                            "NORMAL" : 6,
                            "POSITION" : 5,
                            "TANGENT" : 7
                        },
                        {
                            "NORMAL" : 9,
                            "POSITION" : 8,
                            "TANGENT" : 10
                        },
                        {
                            "NORMAL" : 12,
                            "POSITION" : 11,
                            "TANGENT" : 13
                        }
                    ]
                }
            ],
            "weights" : [
                0.0,
                0.0,
                0.0
            ]
        }
    ],
    "nodes" : [
        {
            "mesh" : 0,
            "name" : "Cube"
        }
    ],
    "scene" : 0,
    "scenes" : [
        {
            "name" : "Scene",
            "nodes" : [
                0
            ]
        }
    ]
}
